<?xml version="1.0" standalone="yes"?>
<svg width="18" height="12">
<path style="fill:#017d59; stroke:none;" d="M0 0L0 1L7 5L7 7L0 11L0 12L18 7L18 5L0 0z"/>
<path style="fill:#63af99; stroke:none;" d="M2 0L3 1L2 0z"/>
<path style="fill:#f1ede9; stroke:none;" d="M3 0L4 1L3 0z"/>
<path style="fill:#eb7b6d; stroke:none;" d="M4 0L5 1L4 0z"/>
<path style="fill:#e33d29; stroke:none;" d="M5 0L5 1L18 4L18 0L5 0z"/>
<path style="fill:#418b47; stroke:none;" d="M0 1L1 2L0 1z"/>
<path style="fill:#258f71; stroke:none;" d="M3 1L4 2L3 1z"/>
<path style="fill:#c9e3dd; stroke:none;" d="M4 1L5 2L4 1z"/>
<path style="fill:#f5b5ad; stroke:none;" d="M5 1L6 2L5 1z"/>
<path style="fill:#e34733; stroke:none;" d="M6 1L7 2L6 1z"/>
<path style="fill:#f5b115; stroke:none;" d="M0 2L1 3L0 2z"/>
<path style="fill:#8d9d33; stroke:none;" d="M1 2L2 3L1 2z"/>
<path style="fill:#077f57; stroke:none;" d="M2 2L3 3L2 2z"/>
<path style="fill:#057f5d; stroke:none;" d="M4 2L5 3L4 2z"/>
<path style="fill:#85c1af; stroke:none;" d="M5 2L6 3L5 2z"/>
<path style="fill:#f9e3e1; stroke:none;" d="M6 2L7 3L6 2z"/>
<path style="fill:#e96757; stroke:none;" d="M7 2L8 3L7 2z"/>
<path style="fill:#1d1503; stroke:none;" d="M0 3L1 4L0 3z"/>
<path style="fill:#d39911; stroke:none;" d="M1 3L2 4L1 3z"/>
<path style="fill:#d1ab1f; stroke:none;" d="M2 3L3 4L2 3z"/>
<path style="fill:#2d874d; stroke:none;" d="M3 3L4 4L3 3z"/>
<path style="fill:#3d9b81; stroke:none;" d="M6 3L7 4L6 3z"/>
<path style="fill:#e1ede9; stroke:none;" d="M7 3L8 4L7 3z"/>
<path style="fill:#f19b91; stroke:none;" d="M8 3L9 4L8 3z"/>
<path style="fill:#e33f2b; stroke:none;" d="M9 3L10 4L9 3z"/>
<path style="fill:#010101; stroke:none;" d="M0 4L0 8L3 7L3 5L0 4z"/>
<path style="fill:#030301; stroke:none;" d="M1 4L2 5L1 4z"/>
<path style="fill:#87630b; stroke:none;" d="M2 4L3 5L2 4z"/>
<path style="fill:#f5b315; stroke:none;" d="M3 4L4 5L3 4z"/>
<path style="fill:#71953b; stroke:none;" d="M4 4L5 5L4 4z"/>
<path style="fill:#0b8361; stroke:none;" d="M7 4L8 5L7 4z"/>
<path style="fill:#7dbda9; stroke:none;" d="M8 4L9 5L8 4z"/>
<path style="fill:#bfdfd5; stroke:none;" d="M9 4L9 5L18 5L9 4z"/>
<path style="fill:#352705; stroke:none;" d="M3.33333 5.66667L3.66667 6.33333L3.33333 5.66667z"/>
<path style="fill:#e7a513; stroke:none;" d="M4.33333 5.66667L4.66667 6.33333L4.33333 5.66667z"/>
<path style="fill:#b9a527; stroke:none;" d="M5.33333 5.66667L5.66667 6.33333L5.33333 5.66667z"/>
<path style="fill:#198353; stroke:none;" d="M6.33333 5.66667L6.66667 6.33333L6.33333 5.66667z"/>
<path style="fill:#030301; stroke:none;" d="M1 7L2 8L1 7z"/>
<path style="fill:#87630b; stroke:none;" d="M2 7L3 8L2 7z"/>
<path style="fill:#f5b315; stroke:none;" d="M3 7L4 8L3 7z"/>
<path style="fill:#71953b; stroke:none;" d="M4 7L5 8L4 7z"/>
<path style="fill:#0b8361; stroke:none;" d="M7 7L8 8L7 7z"/>
<path style="fill:#7dbda9; stroke:none;" d="M8 7L9 8L8 7z"/>
<path style="fill:#bfdfd5; stroke:none;" d="M9 7L9 8L18 8L9 7z"/>
<path style="fill:#1d1503; stroke:none;" d="M0 8L1 9L0 8z"/>
<path style="fill:#d39911; stroke:none;" d="M1 8L2 9L1 8z"/>
<path style="fill:#d1ab1f; stroke:none;" d="M2 8L3 9L2 8z"/>
<path style="fill:#2d874d; stroke:none;" d="M3 8L4 9L3 8z"/>
<path style="fill:#3d9b81; stroke:none;" d="M6 8L7 9L6 8z"/>
<path style="fill:#ddebe9; stroke:none;" d="M7 8L8 9L7 8z"/>
<path style="fill:#838bc5; stroke:none;" d="M8 8L9 9L8 8z"/>
<path style="fill:#0f1f8d; stroke:none;" d="M9 8L10 9L9 8z"/>
<path style="fill:#0d1d8d; stroke:none;" d="M5 11L5 12L18 12L18 8L5 11z"/>
<path style="fill:#f5b115; stroke:none;" d="M0 9L1 10L0 9z"/>
<path style="fill:#8d9d33; stroke:none;" d="M1 9L2 10L1 9z"/>
<path style="fill:#077f57; stroke:none;" d="M2 9L3 10L2 9z"/>
<path style="fill:#057f5d; stroke:none;" d="M4 9L5 10L4 9z"/>
<path style="fill:#85c1af; stroke:none;" d="M5 9L6 10L5 9z"/>
<path style="fill:#dbdfef; stroke:none;" d="M6 9L7 10L6 9z"/>
<path style="fill:#3f4da5; stroke:none;" d="M7 9L8 10L7 9z"/>
<path style="fill:#418b47; stroke:none;" d="M0 10L1 11L0 10z"/>
<path style="fill:#258f71; stroke:none;" d="M3 10L4 11L3 10z"/>
<path style="fill:#c9e3dd; stroke:none;" d="M4 10L5 11L4 10z"/>
<path style="fill:#a1a7d3; stroke:none;" d="M5 10L6 11L5 10z"/>
<path style="fill:#172791; stroke:none;" d="M6 10L7 11L6 10z"/>
<path style="fill:#63af99; stroke:none;" d="M2 11L3 12L2 11z"/>
<path style="fill:#e3e9ef; stroke:none;" d="M3 11L4 12L3 11z"/>
<path style="fill:#5965b1; stroke:none;" d="M4 11L5 12L4 11z"/>
</svg>
