<?xml version="1.0" standalone="yes"?>
<svg width="18" height="12">
<path style="fill:#013399; stroke:none;" d="M0 0L0 12L8 12L7 0L0 0z"/>
<path style="fill:#234fa7; stroke:none;" d="M7 0L8 1L7 0z"/>
<path style="fill:#4569b5; stroke:none;" d="M8 0L9 1L8 0z"/>
<path style="fill:#013399; stroke:none;" d="M9 0L9 1L12 5L8 6L8 9L14 9L12 11L12 12L18 12L18 0L9 0z"/>
<path style="fill:#4569b5; stroke:none;" d="M6 1L7 2L6 1z"/>
<path style="fill:#ffffff; stroke:none;" d="M7.66667 1.33333L8.33333 1.66667L7.66667 1.33333z"/>
<path style="fill:#cdd7eb; stroke:none;" d="M9 1L10 2L9 1z"/>
<path style="fill:#1141a1; stroke:none;" d="M10 1L11 2L10 1z"/>
<path style="fill:#cdd7eb; stroke:none;" d="M6 2L7 3L6 2z"/>
<path style="fill:#5577bb; stroke:none;" d="M7 2L8 3L7 2z"/>
<path style="fill:#013399; stroke:none;" d="M8.33333 2.66667L8.66667 3.33333L8.33333 2.66667z"/>
<path style="fill:#234fa7; stroke:none;" d="M9 2L10 3L9 2z"/>
<path style="fill:#dde5f1; stroke:none;" d="M6 3L7 4L6 3z"/>
<path style="fill:#89a1cf; stroke:none;" d="M7 3L8 4L7 3z"/>
<path style="fill:#4569b5; stroke:none;" d="M9 3L10 4L9 3z"/>
<path style="fill:#abbbdd; stroke:none;" d="M10 3L11 4L10 3z"/>
<path style="fill:#99add7; stroke:none;" d="M11 3L12 4L11 3z"/>
<path style="fill:#5577bb; stroke:none;" d="M6 4L7 5L6 4z"/>
<path style="fill:#ffffff; stroke:none;" d="M7 4L7 5L10 5L7 4z"/>
<path style="fill:#dde5f1; stroke:none;" d="M10 4L11 5L10 4z"/>
<path style="fill:#4569b5; stroke:none;" d="M11 4L12 5L11 4z"/>
<path style="fill:#1141a1; stroke:none;" d="M6 5L7 6L6 5z"/>
<path style="fill:#eff1f9; stroke:none;" d="M7 5L8 6L7 5z"/>
<path style="fill:#cdd7eb; stroke:none;" d="M8 5L9 6L8 5z"/>
<path style="fill:#4569b5; stroke:none;" d="M9 5L10 6L9 5z"/>
<path style="fill:#89a1cf; stroke:none;" d="M6 6L7 7L6 6z"/>
<path style="fill:#99add7; stroke:none;" d="M7 6L8 7L7 6z"/>
<path style="fill:#eff1f9; stroke:none;" d="M6 7L7 8L6 7z"/>
<path style="fill:#1141a1; stroke:none;" d="M7 7L8 8L7 7z"/>
<path style="fill:#dde5f1; stroke:none;" d="M6 8L7 9L6 8z"/>
<path style="fill:#4569b5; stroke:none;" d="M7 8L8 9L7 8z"/>
<path style="fill:#89a1cf; stroke:none;" d="M6 9L7 10L6 9z"/>
<path style="fill:#eff1f9; stroke:none;" d="M7 9L8 10L7 9z"/>
<path style="fill:#7793c9; stroke:none;" d="M8 9L9 10L8 9z"/>
<path style="fill:#335dad; stroke:none;" d="M9 9L10 10L9 9M12 9L13 10L12 9z"/>
<path style="fill:#1141a1; stroke:none;" d="M13.3333 9.66667L13.6667 10.3333L13.3333 9.66667z"/>
<path style="fill:#abbbdd; stroke:none;" d="M7 10L8 11L7 10z"/>
<path style="fill:#ffffff; stroke:none;" d="M8 10L8 11L12 11L8 10z"/>
<path style="fill:#abbbdd; stroke:none;" d="M12 10L13 11L12 10z"/>
<path style="fill:#234fa7; stroke:none;" d="M8 11L9 12L8 11z"/>
<path style="fill:#6785c3; stroke:none;" d="M9 11L10 12L9 11z"/>
<path style="fill:#7793c9; stroke:none;" d="M10 11L11 12L10 11z"/>
<path style="fill:#335dad; stroke:none;" d="M11 11L12 12L11 11z"/>
</svg>
