<?xml version="1.0" standalone="yes"?>
<svg width="24" height="12">
<path style="fill:#fda7b7; stroke:none;" d="M0 0L1 1L0 0z"/>
<path style="fill:#fdc7d1; stroke:none;" d="M1 0L2 1L1 0z"/>
<path style="fill:#f95369; stroke:none;" d="M2 0L3 1L2 0z"/>
<path style="fill:#f30b11; stroke:none;" d="M3 0L3 4L4 4L3 0z"/>
<path style="fill:#f30911; stroke:none;" d="M4 0C3.24286 10.4447 16.462 7 24 7L24 0L4 0z"/>
<path style="fill:#fdb9c5; stroke:none;" d="M0 1L1 2L0 1z"/>
<path style="fill:#fdd1d9; stroke:none;" d="M1 1L2 2L1 1z"/>
<path style="fill:#fb5f75; stroke:none;" d="M2 1L3 2L2 1z"/>
<path style="fill:#fdbfcb; stroke:none;" d="M0 2L1 3L0 2z"/>
<path style="fill:#fdd5dd; stroke:none;" d="M1 2L2 3L1 2z"/>
<path style="fill:#fb657b; stroke:none;" d="M2 2L3 3L2 2z"/>
<path style="fill:#f95369; stroke:none;" d="M0 3L1 4L0 3z"/>
<path style="fill:#fb6d83; stroke:none;" d="M1 3L2 4L1 3z"/>
<path style="fill:#f92b3d; stroke:none;" d="M2 3L3 4L2 3z"/>
<path style="fill:#fdb9c7; stroke:none;" d="M0 4L1 5L0 4z"/>
<path style="fill:#fb8195; stroke:none;" d="M1 4L2 5L1 4z"/>
<path style="fill:#fb7185; stroke:none;" d="M2 4L3 5L2 4z"/>
<path style="fill:#fdb1bf; stroke:none;" d="M0.333333 5.66667L0.666667 6.33333L0.333333 5.66667z"/>
<path style="fill:#fdcfd7; stroke:none;" d="M1.33333 5.66667L1.66667 6.33333L1.33333 5.66667z"/>
<path style="fill:#fb596f; stroke:none;" d="M2.33333 5.66667L2.66667 6.33333L2.33333 5.66667z"/>
<path style="fill:#f30b11; stroke:none;" d="M3 5L4 6L3 5z"/>
<path style="fill:#f50b11; stroke:none;" d="M3 6L4 7L3 6z"/>
<path style="fill:#fdb9c7; stroke:none;" d="M0 7L1 8L0 7z"/>
<path style="fill:#fb8195; stroke:none;" d="M1 7L2 8L1 7z"/>
<path style="fill:#f97d89; stroke:none;" d="M2 7L3 8L2 7z"/>
<path style="fill:#e91113; stroke:none;" d="M3 7L3 8L24 8L3 7z"/>
<path style="fill:#f95369; stroke:none;" d="M0 8L1 9L0 8z"/>
<path style="fill:#fb6983; stroke:none;" d="M1 8L2 9L1 8z"/>
<path style="fill:#db794d; stroke:none;" d="M2 8L3 9L2 8z"/>
<path style="fill:#2fbb27; stroke:none;" d="M3 8L4 9L3 8z"/>
<path style="fill:#2db927; stroke:none;" d="M4 8L4 9L24 9L4 8z"/>
<path style="fill:#fdbfcb; stroke:none;" d="M0 9L1 10L0 9z"/>
<path style="fill:#fdd3dd; stroke:none;" d="M1 9L2 10L1 9z"/>
<path style="fill:#ddc793; stroke:none;" d="M2 9L3 10L2 9z"/>
<path style="fill:#1bd52d; stroke:none;" d="M3.33333 9.66667L3.66667 10.3333L3.33333 9.66667z"/>
<path style="fill:#19d52b; stroke:none;" d="M4 9L4 10L24 10L4 9z"/>
<path style="fill:#fdb9c5; stroke:none;" d="M0 10L1 11L0 10z"/>
<path style="fill:#fdcfd9; stroke:none;" d="M1 10L2 11L1 10z"/>
<path style="fill:#ddc18b; stroke:none;" d="M2 10L3 11L2 10z"/>
<path style="fill:#1bd32b; stroke:none;" d="M4 10L4 12L24 12L24 10L4 10z"/>
<path style="fill:#fda7b7; stroke:none;" d="M0 11L1 12L0 11z"/>
<path style="fill:#fdc3cf; stroke:none;" d="M1 11L2 12L1 11z"/>
<path style="fill:#dbb77f; stroke:none;" d="M2 11L3 12L2 11z"/>
<path style="fill:#1bd52b; stroke:none;" d="M3 11L4 12L3 11z"/>
</svg>
