<?xml version="1.0" standalone="yes"?>
<svg width="19" height="12">
<path style="fill:#fbf103; stroke:none;" d="M0 0L1 1L0 0z"/>
<path style="fill:#fbbf03; stroke:none;" d="M1 0L2 1L1 0z"/>
<path style="fill:#fdbe01; stroke:none;" d="M2 0L2 1L5 1L2 0z"/>
<path style="fill:#f3b905; stroke:none;" d="M5 0L6 1L5 0z"/>
<path style="fill:#d2b209; stroke:none;" d="M6 0L7 1L6 0z"/>
<path style="fill:#d5b309; stroke:none;" d="M7.66667 0.333333L8.33333 0.666667L7.66667 0.333333z"/>
<path style="fill:#e7b507; stroke:none;" d="M9 0L10 1L9 0z"/>
<path style="fill:#fdbe01; stroke:none;" d="M10 0L10 1L14 1L10 0z"/>
<path style="fill:#e9b707; stroke:none;" d="M14 0L15 1L14 0z"/>
<path style="fill:#d5b309; stroke:none;" d="M15 0L15 1L18 1L15 0z"/>
<path style="fill:#f0b705; stroke:none;" d="M18 0L19 1L18 0z"/>
<path style="fill:#d9b509; stroke:none;" d="M0 1L1 2L0 1z"/>
<path style="fill:#2d052d; stroke:none;" d="M1 1L2 2L1 1z"/>
<path style="fill:#cf050b; stroke:none;" d="M2 1L3 2L2 1z"/>
<path style="fill:#f80605; stroke:none;" d="M3 1L4 2L3 1z"/>
<path style="fill:#fb0603; stroke:none;" d="M4 1L6 3L4 1z"/>
<path style="fill:#ea0507; stroke:none;" d="M5 1L6 2L5 1z"/>
<path style="fill:#190339; stroke:none;" d="M6 1L7 2L6 1z"/>
<path style="fill:#070355; stroke:none;" d="M7.66667 1.33333L8.33333 1.66667L7.66667 1.33333z"/>
<path style="fill:#230331; stroke:none;" d="M9 1L10 2L9 1z"/>
<path style="fill:#f80605; stroke:none;" d="M10 1L10 4L11 4L10 1z"/>
<path style="fill:#fb0603; stroke:none;" d="M11 1L11 3L13 1L11 1z"/>
<path style="fill:#c5050d; stroke:none;" d="M13 1L14 2L13 1z"/>
<path style="fill:#0c0348; stroke:none;" d="M14 1L15 2L14 1z"/>
<path style="fill:#070355; stroke:none;" d="M15 1L14 3L15 1z"/>
<path style="fill:#0f0345; stroke:none;" d="M16 1L17 2L16 1z"/>
<path style="fill:#760419; stroke:none;" d="M17 1L18 2L17 1z"/>
<path style="fill:#ed0507; stroke:none;" d="M18 1L19 2L18 1z"/>
<path style="fill:#d2b209; stroke:none;" d="M0 2L1 3L0 2z"/>
<path style="fill:#06035a; stroke:none;" d="M1 2L2 3L1 2z"/>
<path style="fill:#090353; stroke:none;" d="M2 2L3 3L2 2z"/>
<path style="fill:#460322; stroke:none;" d="M3 2L4 3L3 2z"/>
<path style="fill:#e60509; stroke:none;" d="M4 2L5 3L4 2z"/>
<path style="fill:#d8050b; stroke:none;" d="M6 2L7 3L6 2z"/>
<path style="fill:#0f0347; stroke:none;" d="M7 2L8 3L7 2z"/>
<path style="fill:#06035a; stroke:none;" d="M8 2L9 3L8 2z"/>
<path style="fill:#200334; stroke:none;" d="M9 2L10 3L9 2z"/>
<path style="fill:#db0509; stroke:none;" d="M12 2L13 3L12 2z"/>
<path style="fill:#0f0347; stroke:none;" d="M13 2L14 3L13 2z"/>
<path style="fill:#3d0325; stroke:none;" d="M15 2L16 3L15 2z"/>
<path style="fill:#e20509; stroke:none;" d="M16 2L17 3L16 2z"/>
<path style="fill:#fb0603; stroke:none;" d="M17.6667 2.33333L18.3333 2.66667L17.6667 2.33333z"/>
<path style="fill:#f7b903; stroke:none;" d="M0 3L1 4L0 3z"/>
<path style="fill:#6d051b; stroke:none;" d="M1 3L2 4L1 3z"/>
<path style="fill:#200334; stroke:none;" d="M2 3L3 4L2 3z"/>
<path style="fill:#09034f; stroke:none;" d="M3 3L4 4L3 3z"/>
<path style="fill:#0c0348; stroke:none;" d="M4 3L5 4L4 3z"/>
<path style="fill:#760419; stroke:none;" d="M5 3L6 4L5 3z"/>
<path style="fill:#f10505; stroke:none;" d="M6 3L7 4L6 3z"/>
<path style="fill:#c1060d; stroke:none;" d="M7.33333 3.66667L7.66667 4.33333L7.33333 3.66667z"/>
<path style="fill:#0b034b; stroke:none;" d="M8 3L9 4L8 3z"/>
<path style="fill:#27052f; stroke:none;" d="M9 3L10 4L9 3z"/>
<path style="fill:#ea0507; stroke:none;" d="M11 3L12 4L11 3z"/>
<path style="fill:#190339; stroke:none;" d="M12 3L13 4L12 3z"/>
<path style="fill:#200334; stroke:none;" d="M13 3L14 4L13 3z"/>
<path style="fill:#cb050d; stroke:none;" d="M14 3L15 4L14 3z"/>
<path style="fill:#f80605; stroke:none;" d="M15 3L16 4L15 3z"/>
<path style="fill:#f30505; stroke:none;" d="M16 3L17 4L16 3z"/>
<path style="fill:#d8050b; stroke:none;" d="M17 3L18 4L17 3z"/>
<path style="fill:#890315; stroke:none;" d="M18 3L19 4L18 3z"/>
<path style="fill:#fdbe01; stroke:none;" d="M0.333333 4.66667L0.666667 5.33333L0.333333 4.66667z"/>
<path style="fill:#fb0603; stroke:none;" d="M1 4L2 5L1 4z"/>
<path style="fill:#f80605; stroke:none;" d="M2 4L3 5L2 4z"/>
<path style="fill:#e60509; stroke:none;" d="M3 4L4 5L3 4z"/>
<path style="fill:#9d0313; stroke:none;" d="M4 4L5 5L4 4z"/>
<path style="fill:#380328; stroke:none;" d="M5.66667 4.33333L6.33333 4.66667L5.66667 4.33333z"/>
<path style="fill:#c1230d; stroke:none;" d="M8 4L9 5L8 4z"/>
<path style="fill:#e9c305; stroke:none;" d="M9 4L10 5L9 4z"/>
<path style="fill:#fda903; stroke:none;" d="M10 4L11 5L10 4z"/>
<path style="fill:#8b0f15; stroke:none;" d="M11 4L12 5L11 4z"/>
<path style="fill:#830517; stroke:none;" d="M12 4L13 5L12 4z"/>
<path style="fill:#db0509; stroke:none;" d="M13 4L14 5L13 4z"/>
<path style="fill:#b9050f; stroke:none;" d="M14 4L15 5L14 4z"/>
<path style="fill:#4d0321; stroke:none;" d="M15 4L16 5L15 4z"/>
<path style="fill:#14033e; stroke:none;" d="M16 4L17 5L16 4z"/>
<path style="fill:#090353; stroke:none;" d="M17 4L18 5L17 4z"/>
<path style="fill:#06035a; stroke:none;" d="M18 4L19 5L18 4z"/>
<path style="fill:#f10505; stroke:none;" d="M1 5L1 6L4 6L1 5z"/>
<path style="fill:#f30505; stroke:none;" d="M4 5L5 6L4 5z"/>
<path style="fill:#ed0507; stroke:none;" d="M5 5L6 6L5 5z"/>
<path style="fill:#d5050b; stroke:none;" d="M6 5L7 6L6 5z"/>
<path style="fill:#b30b0f; stroke:none;" d="M7 5L8 6L7 5z"/>
<path style="fill:#fbdf03; stroke:none;" d="M8 5L9 6L8 5z"/>
<path style="fill:#fffd01; stroke:none;" d="M9.66667 5.33333L10.3333 5.66667L9.66667 5.33333z"/>
<path style="fill:#eb8905; stroke:none;" d="M11 5L12 6L11 5z"/>
<path style="fill:#710519; stroke:none;" d="M12 5L13 6L12 5z"/>
<path style="fill:#260330; stroke:none;" d="M13 5L14 6L13 5z"/>
<path style="fill:#14033e; stroke:none;" d="M14 5L15 6L14 5z"/>
<path style="fill:#120342; stroke:none;" d="M15 5L15 6L19 6L15 5z"/>
<path style="fill:#dfb307; stroke:none;" d="M0 6L1 7L0 6z"/>
<path style="fill:#120342; stroke:none;" d="M1 6L2 7L1 6z"/>
<path style="fill:#0f0345; stroke:none;" d="M2 6L2 7L5 7L2 6z"/>
<path style="fill:#14033e; stroke:none;" d="M5 6L6 7L5 6z"/>
<path style="fill:#310327; stroke:none;" d="M6 6L7 7L6 6z"/>
<path style="fill:#a90f17; stroke:none;" d="M7 6L8 7L7 6z"/>
<path style="fill:#fdf12f; stroke:none;" d="M8 6L9 7L8 6z"/>
<path style="fill:#fde55d; stroke:none;" d="M9 6L10 7L9 6z"/>
<path style="fill:#fff35b; stroke:none;" d="M10 6L11 7L10 6z"/>
<path style="fill:#f1bd25; stroke:none;" d="M11 6L12 7L11 6z"/>
<path style="fill:#b5070f; stroke:none;" d="M12 6L13 7L12 6z"/>
<path style="fill:#e20509; stroke:none;" d="M13 6L14 7L13 6z"/>
<path style="fill:#f10505; stroke:none;" d="M14 6L15 7L14 6z"/>
<path style="fill:#f30505; stroke:none;" d="M15 6L15 7L19 7L15 6z"/>
<path style="fill:#d2b209; stroke:none;" d="M0 7L1 8L0 7z"/>
<path style="fill:#070355; stroke:none;" d="M1 7L2 8L1 7z"/>
<path style="fill:#0b034b; stroke:none;" d="M2 7L3 8L2 7z"/>
<path style="fill:#260330; stroke:none;" d="M3 7L4 8L3 7z"/>
<path style="fill:#760419; stroke:none;" d="M4 7L5 8L4 7z"/>
<path style="fill:#d5050b; stroke:none;" d="M5 7L6 8L5 7z"/>
<path style="fill:#f71f23; stroke:none;" d="M6 7L7 8L6 7z"/>
<path style="fill:#fbcfb7; stroke:none;" d="M7 7L8 8L7 7z"/>
<path style="fill:#fefaf9; stroke:none;" d="M8 7L9 8L8 7z"/>
<path style="fill:#f9b391; stroke:none;" d="M9 7L10 8L9 7z"/>
<path style="fill:#f9dddd; stroke:none;" d="M10 7L11 8L10 7z"/>
<path style="fill:#f5f7f7; stroke:none;" d="M11 7L12 8L11 7z"/>
<path style="fill:#a78bd1; stroke:none;" d="M12 7L13 8L12 7z"/>
<path style="fill:#31095d; stroke:none;" d="M13 7L14 8L13 7z"/>
<path style="fill:#460322; stroke:none;" d="M14 7L15 8L14 7z"/>
<path style="fill:#b10410; stroke:none;" d="M15 7L16 8L15 7z"/>
<path style="fill:#ea0507; stroke:none;" d="M16 7L17 8L16 7z"/>
<path style="fill:#f80605; stroke:none;" d="M17 7L18 8L17 7z"/>
<path style="fill:#fb0603; stroke:none;" d="M18 7L19 8L18 7z"/>
<path style="fill:#f0b705; stroke:none;" d="M0 8L1 9L0 8z"/>
<path style="fill:#b10410; stroke:none;" d="M1 8L2 9L1 8z"/>
<path style="fill:#ea0507; stroke:none;" d="M2 8L3 9L2 8z"/>
<path style="fill:#f80605; stroke:none;" d="M3 8L4 9L3 8z"/>
<path style="fill:#fb110b; stroke:none;" d="M4 8L5 9L4 8z"/>
<path style="fill:#fda591; stroke:none;" d="M5 8L6 9L5 8z"/>
<path style="fill:#fefaf9; stroke:none;" d="M6 8L7 9L6 8z"/>
<path style="fill:#c7efd3; stroke:none;" d="M7 8L8 9L7 8z"/>
<path style="fill:#e1e5cf; stroke:none;" d="M8 8L9 9L8 8z"/>
<path style="fill:#f9efd1; stroke:none;" d="M9 8L10 9L9 8z"/>
<path style="fill:#f7efdb; stroke:none;" d="M10 8L11 9L10 8z"/>
<path style="fill:#c7e1bb; stroke:none;" d="M11 8L12 9L11 8z"/>
<path style="fill:#e9f7ed; stroke:none;" d="M12 8L13 9L12 8z"/>
<path style="fill:#f1f3f9; stroke:none;" d="M13 8L14 9L13 8z"/>
<path style="fill:#5b49cb; stroke:none;" d="M14 8L15 9L14 8z"/>
<path style="fill:#0b0567; stroke:none;" d="M15 8L16 9L15 8z"/>
<path style="fill:#0b0345; stroke:none;" d="M16 8L17 9L16 8z"/>
<path style="fill:#260330; stroke:none;" d="M17 8L18 9L17 8z"/>
<path style="fill:#760419; stroke:none;" d="M18 8L19 9L18 8z"/>
<path style="fill:#fdbe01; stroke:none;" d="M0 9L1 10L0 9z"/>
<path style="fill:#fb0603; stroke:none;" d="M1 9L2 10L1 9z"/>
<path style="fill:#fb0907; stroke:none;" d="M2 9L3 10L2 9z"/>
<path style="fill:#fd6d61; stroke:none;" d="M3 9L4 10L3 9z"/>
<path style="fill:#fefaf9; stroke:none;" d="M4 9L5 10L4 9z"/>
<path style="fill:#e5f6eb; stroke:none;" d="M5.66667 9.33333L6.33333 9.66667L5.66667 9.33333z"/>
<path style="fill:#eff9f1; stroke:none;" d="M7 9L8 10L7 9z"/>
<path style="fill:#e3f3e3; stroke:none;" d="M8 9L9 10L8 9z"/>
<path style="fill:#f1ddad; stroke:none;" d="M9 9L10 10L9 9z"/>
<path style="fill:#efebc3; stroke:none;" d="M10 9L11 10L10 9z"/>
<path style="fill:#e3f5e7; stroke:none;" d="M11 9L12 10L11 9z"/>
<path style="fill:#f3f9f3; stroke:none;" d="M12 9L13 10L12 9z"/>
<path style="fill:#d3f1db; stroke:none;" d="M13 9L14 10L13 9z"/>
<path style="fill:#f7fbf7; stroke:none;" d="M14 9L15 10L14 9z"/>
<path style="fill:#efe9f9; stroke:none;" d="M15 9L16 10L15 9z"/>
<path style="fill:#3521b1; stroke:none;" d="M16 9L17 10L16 9z"/>
<path style="fill:#07035d; stroke:none;" d="M17 9L18 10L17 9z"/>
<path style="fill:#060257; stroke:none;" d="M18 9L19 10L18 9z"/>
<path style="fill:#fdc701; stroke:none;" d="M0 10L1 11L0 10z"/>
<path style="fill:#fd3d25; stroke:none;" d="M1 10L2 11L1 10z"/>
<path style="fill:#ffefe9; stroke:none;" d="M2 10L3 11L2 10z"/>
<path style="fill:#ffffff; stroke:none;" d="M3.66667 10.3333L4.33333 10.6667L3.66667 10.3333z"/>
<path style="fill:#fdfdfb; stroke:none;" d="M5 10L6 11L5 10z"/>
<path style="fill:#f0f8ea; stroke:none;" d="M6 10L7 11L6 10z"/>
<path style="fill:#f9fbf5; stroke:none;" d="M7 10L8 11L7 10z"/>
<path style="fill:#fbfdf9; stroke:none;" d="M8 10L9 11L8 10z"/>
<path style="fill:#fbf3e9; stroke:none;" d="M9 10L10 11L9 10z"/>
<path style="fill:#fdfbf3; stroke:none;" d="M10 10L11 11L10 10z"/>
<path style="fill:#fbfdf9; stroke:none;" d="M11 10L12 11L11 10z"/>
<path style="fill:#f7fbf3; stroke:none;" d="M12 10L13 11L12 10z"/>
<path style="fill:#f0f8ea; stroke:none;" d="M13 10L14 11L13 10z"/>
<path style="fill:#ffffff; stroke:none;" d="M14 10L14 11L17 11L14 10z"/>
<path style="fill:#d1c1eb; stroke:none;" d="M17 10L18 11L17 10z"/>
<path style="fill:#211189; stroke:none;" d="M18 10L19 11L18 10z"/>
<path style="fill:#fff703; stroke:none;" d="M0 11L1 12L0 11z"/>
<path style="fill:#fffb1d; stroke:none;" d="M1 11L2 12L1 11z"/>
<path style="fill:#ffff3b; stroke:none;" d="M2 11L3 12L2 11z"/>
<path style="fill:#ffff35; stroke:none;" d="M3.66667 11.3333L4.33333 11.6667L3.66667 11.3333z"/>
<path style="fill:#fffd32; stroke:none;" d="M5 11L6 12L5 11z"/>
<path style="fill:#fffd25; stroke:none;" d="M6 11L7 12L6 11z"/>
<path style="fill:#fffd32; stroke:none;" d="M7 11L8 12L7 11z"/>
<path style="fill:#ffff38; stroke:none;" d="M8 11L8 12L12 12L8 11z"/>
<path style="fill:#fffd2d; stroke:none;" d="M12 11L13 12L12 11z"/>
<path style="fill:#fffd29; stroke:none;" d="M13 11L14 12L13 11z"/>
<path style="fill:#ffff35; stroke:none;" d="M14 11L15 12L14 11z"/>
<path style="fill:#fffd32; stroke:none;" d="M15 11L16 12L15 11z"/>
<path style="fill:#ffff35; stroke:none;" d="M16 11L17 12L16 11z"/>
<path style="fill:#ffff38; stroke:none;" d="M17 11L18 12L17 11z"/>
<path style="fill:#fbf71d; stroke:none;" d="M18 11L19 12L18 11z"/>
</svg>
