<?xml version="1.0" standalone="yes"?>
<svg width="18" height="12">
<path style="fill:#4d759f; stroke:none;" d="M0 0L1 1L0 0z"/>
<path style="fill:#ebeff5; stroke:none;" d="M1 0L2 1L1 0z"/>
<path style="fill:#ffffff; stroke:none;" d="M2 0L2 1L18 6L18 0L2 0z"/>
<path style="fill:#11457f; stroke:none;" d="M0 1L0 11L7 7L7 5L0 1z"/>
<path style="fill:#255589; stroke:none;" d="M1 1L2 2L1 1z"/>
<path style="fill:#b1c1d5; stroke:none;" d="M2 1L3 2L2 1z"/>
<path style="fill:#6183a9; stroke:none;" d="M3 2L4 3L3 2z"/>
<path style="fill:#ebeff5; stroke:none;" d="M4 2L5 3L4 2z"/>
<path style="fill:#275589; stroke:none;" d="M4 3L5 4L4 3z"/>
<path style="fill:#b1c1d5; stroke:none;" d="M5 3L6 4L5 3z"/>
<path style="fill:#6183a9; stroke:none;" d="M6 4L7 5L6 4z"/>
<path style="fill:#ebeff5; stroke:none;" d="M7 4L8 5L7 4z"/>
<path style="fill:#275589; stroke:none;" d="M7 5L8 6L7 5z"/>
<path style="fill:#b1c1d5; stroke:none;" d="M8 5L9 6L8 5z"/>
<path style="fill:#234175; stroke:none;" d="M7 6L8 7L7 6z"/>
<path style="fill:#95253b; stroke:none;" d="M8 6L9 7L8 6z"/>
<path style="fill:#d7151b; stroke:none;" d="M2 11L2 12L18 12L18 6L2 11z"/>
<path style="fill:#53355d; stroke:none;" d="M6 7L7 8L6 7z"/>
<path style="fill:#c51923; stroke:none;" d="M7 7L8 8L7 7z"/>
<path style="fill:#234175; stroke:none;" d="M4 8L5 9L4 8z"/>
<path style="fill:#95253b; stroke:none;" d="M5 8L6 9L5 8z"/>
<path style="fill:#53355d; stroke:none;" d="M3 9L4 10L3 9z"/>
<path style="fill:#c51923; stroke:none;" d="M4 9L5 10L4 9z"/>
<path style="fill:#234175; stroke:none;" d="M1 10L2 11L1 10z"/>
<path style="fill:#95253b; stroke:none;" d="M2 10L3 11L2 10z"/>
<path style="fill:#473963; stroke:none;" d="M0 11L1 12L0 11z"/>
<path style="fill:#c51923; stroke:none;" d="M1 11L2 12L1 11z"/>
</svg>
