<?xml version="1.0" standalone="yes"?>
<svg width="16" height="12">
<path style="fill:#d10d33; stroke:none;" d="M0 0L0 5L5 5L5 0L0 0z"/>
<path style="fill:#f7d5db; stroke:none;" d="M5 0L5 5L6 5L5 0z"/>
<path style="fill:#fdf1f3; stroke:none;" d="M6 0L6 5L7 5L6 0z"/>
<path style="fill:#d10d33; stroke:none;" d="M7 0L7 5L16 5L16 0L7 0z"/>
<path style="fill:#f9dfe5; stroke:none;" d="M0 5L0 7L5 7L5 5L0 5z"/>
<path style="fill:#fff9fb; stroke:none;" d="M5.33333 5.66667L5.66667 6.33333L5.33333 5.66667z"/>
<path style="fill:#fffdfd; stroke:none;" d="M6.33333 5.66667L6.66667 6.33333L6.33333 5.66667z"/>
<path style="fill:#f9dfe5; stroke:none;" d="M7 5L7 7L16 7L16 5L7 5z"/>
<path style="fill:#d10d33; stroke:none;" d="M0 7L0 12L5 12L5 7L0 7z"/>
<path style="fill:#f7d5db; stroke:none;" d="M5 7L5 12L6 12L5 7z"/>
<path style="fill:#fdf1f3; stroke:none;" d="M6 7L6 12L7 12L6 7z"/>
<path style="fill:#d10d33; stroke:none;" d="M7 7L7 12L16 12L16 7L7 7z"/>
</svg>
