<?xml version="1.0" standalone="yes"?>
<svg width="18" height="12">
<path style="fill:#111f8b; stroke:none;" d="M0 0L0 2L2 2L2 0L0 0z"/>
<path style="fill:#6971b5; stroke:none;" d="M2 0L3 1L2 0z"/>
<path style="fill:#ffffff; stroke:none;" d="M3 0L0 3L0 4L3 4L3 7L0 7L0 8L18 8L18 7L4 7L6 4L6 3L3 0z"/>
<path style="fill:#111f8b; stroke:none;" d="M4 2L18 1C14.2336 -0.580429 6.84773 -1.25888 4 2z"/>
<path style="fill:#656fb3; stroke:none;" d="M2 1L3 2L2 1z"/>
<path style="fill:#4955a7; stroke:none;" d="M6 1L7 2L6 1z"/>
<path style="fill:#afb5d9; stroke:none;" d="M7 1L7 3L17 3L17 1L7 1z"/>
<path style="fill:#bdc1df; stroke:none;" d="M17.3333 1.66667L17.6667 2.33333L17.3333 1.66667z"/>
<path style="fill:#636db3; stroke:none;" d="M0 2L1 3L0 2z"/>
<path style="fill:#616bb1; stroke:none;" d="M1 2L2 3L1 2z"/>
<path style="fill:#999fcd; stroke:none;" d="M2 2L3 3L2 2z"/>
<path style="fill:#616bb1; stroke:none;" d="M4.66667 2.33333L5.33333 2.66667L4.66667 2.33333z"/>
<path style="fill:#7d85bf; stroke:none;" d="M6 2L7 3L6 2z"/>
<path style="fill:#abb1d7; stroke:none;" d="M6 3L7 4L6 3z"/>
<path style="fill:#111f8b; stroke:none;" d="M7 3L7 4L18 4L7 3M0 4L0 6L2 6L2 4L0 4z"/>
<path style="fill:#656fb3; stroke:none;" d="M2.33333 4.66667L2.66667 5.33333L2.33333 4.66667z"/>
<path style="fill:#111f8b; stroke:none;" d="M4 4L4 6L6 6L6 4L4 4z"/>
<path style="fill:#656fb3; stroke:none;" d="M6 4L7 5L6 4z"/>
<path style="fill:#ffffff; stroke:none;" d="M7 4L7 5L18 5L7 4z"/>
<path style="fill:#2d3999; stroke:none;" d="M6 5L7 6L6 5z"/>
<path style="fill:#616bb1; stroke:none;" d="M4 6L4 7L17 7L17 5L4 6z"/>
<path style="fill:#636db3; stroke:none;" d="M17.3333 5.66667L17.6667 6.33333L17.3333 5.66667M0 6L1 7L0 6z"/>
<path style="fill:#616bb1; stroke:none;" d="M1 6L2 7L1 6z"/>
<path style="fill:#999fcd; stroke:none;" d="M2 6L3 7L2 6z"/>
<path style="fill:#111f8b; stroke:none;" d="M0 8L0 9L18 9L0 8z"/>
<path style="fill:#bdc1df; stroke:none;" d="M0.333333 9.66667L0.666667 10.3333L0.333333 9.66667z"/>
<path style="fill:#afb5d9; stroke:none;" d="M1 9L1 11L17 11L17 9L1 9z"/>
<path style="fill:#bdc1df; stroke:none;" d="M17.3333 9.66667L17.6667 10.3333L17.3333 9.66667z"/>
<path style="fill:#111f8b; stroke:none;" d="M0 11L0 12L18 12L0 11z"/>
</svg>
