<?xml version="1.0" standalone="yes"?>
<svg width="24" height="12">
<path style="fill:#db5163; stroke:none;" d="M0 0L1 1L0 0z"/>
<path style="fill:#f3c5cb; stroke:none;" d="M1 0L2 1L1 0z"/>
<path style="fill:#fdf1f3; stroke:none;" d="M2 0L3 1L2 0z"/>
<path style="fill:#cbc3d5; stroke:none;" d="M3 0L4 1L3 0z"/>
<path style="fill:#274591; stroke:none;" d="M4 0L5 1L4 0z"/>
<path style="fill:#01257d; stroke:none;" d="M5 0L5 1L10 3C9.34559 -0.0539179 7.99341 0.0642357 5 0z"/>
<path style="fill:#f7d7db; stroke:none;" d="M10 0L10 4L11 4L10 0z"/>
<path style="fill:#cf152b; stroke:none;" d="M11 0L11 5L0 5L0 7L11 7L11 12L13 12L13 7L24 7L24 5L13 5L13 0L11 0z"/>
<path style="fill:#f7d7db; stroke:none;" d="M13 0L13 4L14 4L13 0z"/>
<path style="fill:#01257d; stroke:none;" d="M14 3L19 1C16.3872 -0.498004 14.6455 -0.0124044 14 3z"/>
<path style="fill:#1d3d8d; stroke:none;" d="M19 0L20 1L19 0z"/>
<path style="fill:#a191b3; stroke:none;" d="M20 0L21 1L20 0z"/>
<path style="fill:#df6777; stroke:none;" d="M21 0L22 1L21 0z"/>
<path style="fill:#db5163; stroke:none;" d="M22 0L23 1L22 0z"/>
<path style="fill:#f3c5cb; stroke:none;" d="M23 0L24 1L23 0z"/>
<path style="fill:#a191b3; stroke:none;" d="M0 1L1 2L0 1z"/>
<path style="fill:#df6777; stroke:none;" d="M1 1L2 2L1 1z"/>
<path style="fill:#db5163; stroke:none;" d="M2 1L3 2L2 1z"/>
<path style="fill:#f3c5cb; stroke:none;" d="M3 1L4 2L3 1z"/>
<path style="fill:#fdf1f3; stroke:none;" d="M4 1L5 2L4 1z"/>
<path style="fill:#cbc3d5; stroke:none;" d="M5 1L6 2L5 1z"/>
<path style="fill:#274591; stroke:none;" d="M6 1L7 2L6 1z"/>
<path style="fill:#1d3d8d; stroke:none;" d="M17 1L18 2L17 1z"/>
<path style="fill:#a191b3; stroke:none;" d="M18 1L19 2L18 1z"/>
<path style="fill:#df6777; stroke:none;" d="M19 1L20 2L19 1z"/>
<path style="fill:#db5163; stroke:none;" d="M20 1L21 2L20 1z"/>
<path style="fill:#f3c5cb; stroke:none;" d="M21 1L22 2L21 1z"/>
<path style="fill:#fdf1f3; stroke:none;" d="M22 1L23 2L22 1z"/>
<path style="fill:#cbc3d5; stroke:none;" d="M23 1L24 2L23 1z"/>
<path style="fill:#01257d; stroke:none;" d="M0 2L3 4L3 3L0 2z"/>
<path style="fill:#1d3d8d; stroke:none;" d="M1 2L2 3L1 2z"/>
<path style="fill:#a191b3; stroke:none;" d="M2 2L3 3L2 2z"/>
<path style="fill:#df6777; stroke:none;" d="M3 2L4 3L3 2z"/>
<path style="fill:#db5163; stroke:none;" d="M4 2L5 3L4 2z"/>
<path style="fill:#f3c5cb; stroke:none;" d="M5 2L6 3L5 2z"/>
<path style="fill:#fdf1f3; stroke:none;" d="M6 2L7 3L6 2z"/>
<path style="fill:#cbc3d5; stroke:none;" d="M7 2L8 3L7 2z"/>
<path style="fill:#274591; stroke:none;" d="M8 2L9 3L8 2z"/>
<path style="fill:#1d3d8d; stroke:none;" d="M15 2L16 3L15 2z"/>
<path style="fill:#a191b3; stroke:none;" d="M16 2L17 3L16 2z"/>
<path style="fill:#df6777; stroke:none;" d="M17 2L18 3L17 2z"/>
<path style="fill:#db5163; stroke:none;" d="M18 2L19 3L18 2z"/>
<path style="fill:#f3c5cb; stroke:none;" d="M19 2L20 3L19 2z"/>
<path style="fill:#fdf1f3; stroke:none;" d="M20 2L21 3L20 2z"/>
<path style="fill:#cbc3d5; stroke:none;" d="M21 2L22 3L21 2z"/>
<path style="fill:#274591; stroke:none;" d="M22 2L23 3L22 2z"/>
<path style="fill:#01257d; stroke:none;" d="M23 2L21 3L21 4L23 2z"/>
<path style="fill:#1d3d8d; stroke:none;" d="M3 3L4 4L3 3z"/>
<path style="fill:#a191b3; stroke:none;" d="M4 3L5 4L4 3z"/>
<path style="fill:#df6777; stroke:none;" d="M5 3L6 4L5 3z"/>
<path style="fill:#db5163; stroke:none;" d="M6 3L7 4L6 3z"/>
<path style="fill:#f3c5cb; stroke:none;" d="M7 3L8 4L7 3z"/>
<path style="fill:#fdf1f3; stroke:none;" d="M8 3L9 4L8 3z"/>
<path style="fill:#cbc3d5; stroke:none;" d="M9 3L10 4L9 3z"/>
<path style="fill:#a191b3; stroke:none;" d="M14 3L15 4L14 3z"/>
<path style="fill:#df6777; stroke:none;" d="M15 3L16 4L15 3z"/>
<path style="fill:#db5163; stroke:none;" d="M16 3L17 4L16 3z"/>
<path style="fill:#f3c5cb; stroke:none;" d="M17 3L18 4L17 3z"/>
<path style="fill:#fdf1f3; stroke:none;" d="M18 3L19 4L18 3z"/>
<path style="fill:#cbc3d5; stroke:none;" d="M19 3L20 4L19 3z"/>
<path style="fill:#274591; stroke:none;" d="M20 3L21 4L20 3z"/>
<path style="fill:#f5d1d5; stroke:none;" d="M0 4L0 5L10 5L0 4z"/>
<path style="fill:#eda7af; stroke:none;" d="M10 4L11 5L10 4M13 4L14 5L13 4z"/>
<path style="fill:#f5d1d5; stroke:none;" d="M14 4L14 5L24 5L14 4M0 7L0 8L10 8L0 7z"/>
<path style="fill:#eda7af; stroke:none;" d="M10 7L11 8L10 7M13 7L14 8L13 7z"/>
<path style="fill:#f5d1d5; stroke:none;" d="M14 7L14 8L24 8L14 7z"/>
<path style="fill:#01257d; stroke:none;" d="M0 10L3 9L0 10z"/>
<path style="fill:#274591; stroke:none;" d="M3 8L4 9L3 8z"/>
<path style="fill:#cbc3d5; stroke:none;" d="M4 8L5 9L4 8z"/>
<path style="fill:#fdf1f3; stroke:none;" d="M5 8L6 9L5 8z"/>
<path style="fill:#f3c5cb; stroke:none;" d="M6 8L7 9L6 8z"/>
<path style="fill:#db5163; stroke:none;" d="M7 8L8 9L7 8z"/>
<path style="fill:#df6777; stroke:none;" d="M8 8L9 9L8 8z"/>
<path style="fill:#a191b3; stroke:none;" d="M9 8L10 9L9 8z"/>
<path style="fill:#f7d7db; stroke:none;" d="M10 8L10 12L11 12L10 8M13 8L13 12L14 12L13 8z"/>
<path style="fill:#cbc3d5; stroke:none;" d="M14 8L15 9L14 8z"/>
<path style="fill:#fdf1f3; stroke:none;" d="M15 8L16 9L15 8z"/>
<path style="fill:#f3c5cb; stroke:none;" d="M16 8L17 9L16 8z"/>
<path style="fill:#db5163; stroke:none;" d="M17 8L18 9L17 8z"/>
<path style="fill:#df6777; stroke:none;" d="M18 8L19 9L18 8z"/>
<path style="fill:#a191b3; stroke:none;" d="M19 8L20 9L19 8z"/>
<path style="fill:#1d3d8d; stroke:none;" d="M20 8L21 9L20 8z"/>
<path style="fill:#01257d; stroke:none;" d="M21 8L21 9L24 10L21 8z"/>
<path style="fill:#274591; stroke:none;" d="M1 9L2 10L1 9z"/>
<path style="fill:#cbc3d5; stroke:none;" d="M2 9L3 10L2 9z"/>
<path style="fill:#fdf1f3; stroke:none;" d="M3 9L4 10L3 9z"/>
<path style="fill:#f3c5cb; stroke:none;" d="M4 9L5 10L4 9z"/>
<path style="fill:#db5163; stroke:none;" d="M5 9L6 10L5 9z"/>
<path style="fill:#df6777; stroke:none;" d="M6 9L7 10L6 9z"/>
<path style="fill:#a191b3; stroke:none;" d="M7 9L8 10L7 9z"/>
<path style="fill:#1d3d8d; stroke:none;" d="M8 9L9 10L8 9z"/>
<path style="fill:#01257d; stroke:none;" d="M9 9L5 11L5 12C7.44993 11.8795 10.0951 11.9051 9 9M14 9C14.6544 12.0539 16.0066 11.9358 19 12L19 11L14 9z"/>
<path style="fill:#274591; stroke:none;" d="M15 9L16 10L15 9z"/>
<path style="fill:#cbc3d5; stroke:none;" d="M16 9L17 10L16 9z"/>
<path style="fill:#fdf1f3; stroke:none;" d="M17 9L18 10L17 9z"/>
<path style="fill:#f3c5cb; stroke:none;" d="M18 9L19 10L18 9z"/>
<path style="fill:#db5163; stroke:none;" d="M19 9L20 10L19 9z"/>
<path style="fill:#df6777; stroke:none;" d="M20 9L21 10L20 9z"/>
<path style="fill:#a191b3; stroke:none;" d="M21 9L22 10L21 9z"/>
<path style="fill:#1d3d8d; stroke:none;" d="M22 9L23 10L22 9z"/>
<path style="fill:#cbc3d5; stroke:none;" d="M0 10L1 11L0 10z"/>
<path style="fill:#fdf1f3; stroke:none;" d="M1 10L2 11L1 10z"/>
<path style="fill:#f3c5cb; stroke:none;" d="M2 10L3 11L2 10z"/>
<path style="fill:#db5163; stroke:none;" d="M3 10L4 11L3 10z"/>
<path style="fill:#df6777; stroke:none;" d="M4 10L5 11L4 10z"/>
<path style="fill:#a191b3; stroke:none;" d="M5 10L6 11L5 10z"/>
<path style="fill:#1d3d8d; stroke:none;" d="M6 10L7 11L6 10z"/>
<path style="fill:#274591; stroke:none;" d="M17 10L18 11L17 10z"/>
<path style="fill:#cbc3d5; stroke:none;" d="M18 10L19 11L18 10z"/>
<path style="fill:#fdf1f3; stroke:none;" d="M19 10L20 11L19 10z"/>
<path style="fill:#f3c5cb; stroke:none;" d="M20 10L21 11L20 10z"/>
<path style="fill:#db5163; stroke:none;" d="M21 10L22 11L21 10z"/>
<path style="fill:#df6777; stroke:none;" d="M22 10L23 11L22 10z"/>
<path style="fill:#a191b3; stroke:none;" d="M23 10L24 11L23 10z"/>
<path style="fill:#f3c5cb; stroke:none;" d="M0 11L1 12L0 11z"/>
<path style="fill:#db5163; stroke:none;" d="M1 11L2 12L1 11z"/>
<path style="fill:#df6777; stroke:none;" d="M2 11L3 12L2 11z"/>
<path style="fill:#a191b3; stroke:none;" d="M3 11L4 12L3 11z"/>
<path style="fill:#1d3d8d; stroke:none;" d="M4 11L5 12L4 11z"/>
<path style="fill:#274591; stroke:none;" d="M19 11L20 12L19 11z"/>
<path style="fill:#cbc3d5; stroke:none;" d="M20 11L21 12L20 11z"/>
<path style="fill:#fdf1f3; stroke:none;" d="M21 11L22 12L21 11z"/>
<path style="fill:#f3c5cb; stroke:none;" d="M22 11L23 12L22 11z"/>
<path style="fill:#db5163; stroke:none;" d="M23 11L24 12L23 11z"/>
</svg>
