<?xml version="1.0" standalone="yes"?>
<svg width="18" height="12">
<path style="fill:#ffffff; stroke:none;" d="M0 0L0 6L6 6L6 0L0 0z"/>
<path style="fill:#019901; stroke:none;" d="M6 0L6 6L0 6L0 12L18 12L18 0L6 0z"/>
<path style="fill:#cdebcd; stroke:none;" d="M2.66667 1.33333L3.33333 1.66667L2.66667 1.33333z"/>
<path style="fill:#9fd99f; stroke:none;" d="M1 2L2 3L1 2z"/>
<path style="fill:#33ad33; stroke:none;" d="M2.66667 2.33333L3.33333 2.66667L2.66667 2.33333z"/>
<path style="fill:#9fd99f; stroke:none;" d="M4 2L5 3L4 2z"/>
<path style="fill:#23a723; stroke:none;" d="M2.66667 3.33333L3.33333 3.66667L2.66667 3.33333z"/>
<path style="fill:#eff9ef; stroke:none;" d="M1 4L2 5L1 4z"/>
<path style="fill:#cfebcf; stroke:none;" d="M2.66667 4.33333L3.33333 4.66667L2.66667 4.33333z"/>
<path style="fill:#eff9ef; stroke:none;" d="M4 4L5 5L4 4z"/>
</svg>
