<?xml version="1.0" standalone="yes"?>
<svg width="18" height="12">
<path style="fill:#c70b1f; stroke:none;" d="M0 0L0 3L18 3L18 0L0 0z"/>
<path style="fill:#ffc501; stroke:none;" d="M0 3L0 9L3 9L5 3L0 3z"/>
<path style="fill:#fbc101; stroke:none;" d="M5 3L6 4L5 3z"/>
<path style="fill:#f9bf01; stroke:none;" d="M6 3L7 4L6 3z"/>
<path style="fill:#ffc501; stroke:none;" d="M7 3L9 9L18 9L18 3L7 3z"/>
<path style="fill:#f1b505; stroke:none;" d="M4 4L5 5L4 4z"/>
<path style="fill:#b57517; stroke:none;" d="M5 4L6 5L5 4z"/>
<path style="fill:#b17717; stroke:none;" d="M6 4L7 5L6 4z"/>
<path style="fill:#f1b305; stroke:none;" d="M7 4L8 5L7 4z"/>
<path style="fill:#fbbf01; stroke:none;" d="M3 5L4 6L3 5z"/>
<path style="fill:#d39919; stroke:none;" d="M4 5L5 6L4 5z"/>
<path style="fill:#b7570d; stroke:none;" d="M5 5L6 6L5 5z"/>
<path style="fill:#c19f7b; stroke:none;" d="M6 5L7 6L6 5z"/>
<path style="fill:#d1ad33; stroke:none;" d="M7 5L8 6L7 5z"/>
<path style="fill:#fbbf01; stroke:none;" d="M8 5L9 6L8 5z"/>
<path style="fill:#f7b501; stroke:none;" d="M3 6L4 7L3 6z"/>
<path style="fill:#c97d3d; stroke:none;" d="M4 6L5 7L4 6z"/>
<path style="fill:#834929; stroke:none;" d="M5 6L6 7L5 6z"/>
<path style="fill:#a57169; stroke:none;" d="M6 6L7 7L6 6z"/>
<path style="fill:#cb9359; stroke:none;" d="M7 6L8 7L7 6z"/>
<path style="fill:#f7b503; stroke:none;" d="M8 6L9 7L8 6z"/>
<path style="fill:#f7b703; stroke:none;" d="M3 7L4 8L3 7z"/>
<path style="fill:#cfa143; stroke:none;" d="M4 7L5 8L4 7z"/>
<path style="fill:#ad5b13; stroke:none;" d="M5 7L6 8L5 7z"/>
<path style="fill:#b5571b; stroke:none;" d="M6 7L7 8L6 7z"/>
<path style="fill:#c99747; stroke:none;" d="M7 7L8 8L7 7z"/>
<path style="fill:#f5b503; stroke:none;" d="M8 7L9 8L8 7z"/>
<path style="fill:#f7bf07; stroke:none;" d="M3 8L4 9L3 8z"/>
<path style="fill:#e1b715; stroke:none;" d="M4 8L5 9L4 8z"/>
<path style="fill:#e3b51f; stroke:none;" d="M5 8L6 9L5 8z"/>
<path style="fill:#e7b921; stroke:none;" d="M6 8L7 9L6 8z"/>
<path style="fill:#e3b717; stroke:none;" d="M7 8L8 9L7 8z"/>
<path style="fill:#f5bd07; stroke:none;" d="M8 8L9 9L8 8z"/>
<path style="fill:#c70b1f; stroke:none;" d="M0 9L0 12L18 12L18 9L0 9z"/>
</svg>
