<?xml version="1.0" standalone="yes"?>
<svg width="16" height="12">
<path style="fill:#016701; stroke:none;" d="M0 0L7 5L7 4L0 0z"/>
<path style="fill:#c71701; stroke:none;" d="M2 0L3 1L2 0z"/>
<path style="fill:#ff0101; stroke:none;" d="M3 0L7 4L7 0L3 0z"/>
<path style="fill:#fdfffd; stroke:none;" d="M7 0L7 6L0 6L0 7L7 7L7 12L9 12L9 7L16 7L16 6L9 6L9 0L7 0z"/>
<path style="fill:#ff0101; stroke:none;" d="M9 0L9 4L10 4L13 1L9 0z"/>
<path style="fill:#e30b01; stroke:none;" d="M13 0L14 1L13 0z"/>
<path style="fill:#016701; stroke:none;" d="M9 4L9 5L16 0L9 4z"/>
<path style="fill:#454b01; stroke:none;" d="M0 1L1 2L0 1z"/>
<path style="fill:#bd1b01; stroke:none;" d="M3 1L4 2L3 1z"/>
<path style="fill:#b51f01; stroke:none;" d="M12 1L13 2L12 1z"/>
<path style="fill:#ff0101; stroke:none;" d="M0 2L3 5L0 2z"/>
<path style="fill:#912d01; stroke:none;" d="M1 2L2 3L1 2z"/>
<path style="fill:#4b4901; stroke:none;" d="M4 2L5 3L4 2z"/>
<path style="fill:#fd0101; stroke:none;" d="M10 2L11 3L10 2z"/>
<path style="fill:#9d2701; stroke:none;" d="M11 2L12 3L11 2z"/>
<path style="fill:#ff0101; stroke:none;" d="M15 2L13 5C15.2508 4.52676 16.1178 4.1397 15 2z"/>
<path style="fill:#7f3301; stroke:none;" d="M2 3L3 4L2 3z"/>
<path style="fill:#4b4901; stroke:none;" d="M13 3L14 4L13 3z"/>
<path style="fill:#833301; stroke:none;" d="M3 4L4 5L3 4z"/>
<path style="fill:#793701; stroke:none;" d="M12 4L13 5L12 4z"/>
<path style="fill:#ff5b59; stroke:none;" d="M0 5L1 6L0 5z"/>
<path style="fill:#ff7777; stroke:none;" d="M1 5L2 6L1 5z"/>
<path style="fill:#ff4745; stroke:none;" d="M2 5L3 6L2 5z"/>
<path style="fill:#ff4545; stroke:none;" d="M3 5L4 6L3 5z"/>
<path style="fill:#f53f3b; stroke:none;" d="M4 5L5 6L4 5z"/>
<path style="fill:#157315; stroke:none;" d="M5 5L6 6L5 5z"/>
<path style="fill:#1f791f; stroke:none;" d="M6 5L7 6L6 5z"/>
<path style="fill:#257b25; stroke:none;" d="M9 5L10 6L9 5z"/>
<path style="fill:#1f791f; stroke:none;" d="M10 5L11 6L10 5z"/>
<path style="fill:#c95d47; stroke:none;" d="M11 5L12 6L11 5z"/>
<path style="fill:#ff615f; stroke:none;" d="M12 5L13 6L12 5z"/>
<path style="fill:#ff5957; stroke:none;" d="M13 5L14 6L13 5z"/>
<path style="fill:#ff5d5d; stroke:none;" d="M14 5L15 6L14 5z"/>
<path style="fill:#ff6563; stroke:none;" d="M15 5L16 6L15 5z"/>
<path style="fill:#ff5151; stroke:none;" d="M0 7L1 8L0 7z"/>
<path style="fill:#ff3f3f; stroke:none;" d="M1 7L2 8L1 7z"/>
<path style="fill:#ff615f; stroke:none;" d="M2 7L3 8L2 7z"/>
<path style="fill:#ff6363; stroke:none;" d="M3 7L4 8L3 7z"/>
<path style="fill:#ff7977; stroke:none;" d="M4 7L5 8L4 7z"/>
<path style="fill:#87b987; stroke:none;" d="M5 7L6 8L5 7z"/>
<path style="fill:#81b581; stroke:none;" d="M6 7L7 8L6 7z"/>
<path style="fill:#599d59; stroke:none;" d="M9.66667 7.33333L10.3333 7.66667L9.66667 7.33333z"/>
<path style="fill:#e18579; stroke:none;" d="M11 7L12 8L11 7z"/>
<path style="fill:#ff7979; stroke:none;" d="M12 7L13 8L12 7z"/>
<path style="fill:#fd9f9d; stroke:none;" d="M13 7L14 8L13 7z"/>
<path style="fill:#fd9f9f; stroke:none;" d="M14 7L15 8L14 7z"/>
<path style="fill:#ff5351; stroke:none;" d="M15 7L16 8L15 7z"/>
<path style="fill:#ff0101; stroke:none;" d="M0 10L3 9L0 10z"/>
<path style="fill:#016701; stroke:none;" d="M0 12L7 9C3.66568 7.85321 1.71575 9.06028 0 12M9 8L9 9L16 12L9 8z"/>
<path style="fill:#ff0101; stroke:none;" d="M13 8L16 11L13 8z"/>
<path style="fill:#7f3501; stroke:none;" d="M5 9L6 10L5 9z"/>
<path style="fill:#ff0101; stroke:none;" d="M6 9L2 11L2 12C4.44993 11.8795 7.09514 11.9051 6 9M9 9L12 12L9 9z"/>
<path style="fill:#b71d01; stroke:none;" d="M10 9L11 10L10 9z"/>
<path style="fill:#e50b01; stroke:none;" d="M11 10L12 11L11 10z"/>
<path style="fill:#f70501; stroke:none;" d="M12 11L13 12L12 11z"/>
</svg>
