<?xml version="1.0" standalone="yes"?>
<svg width="20" height="12">
<path style="fill:#ffffff; stroke:none;" d="M0 0L0 4L5 4L5 0L0 0z"/>
<path style="fill:#87a1c3; stroke:none;" d="M5 0L5 4L6 4L5 0z"/>
<path style="fill:#013581; stroke:none;" d="M6 0L6 5L0 5L0 7L6 7L6 12L8 12L8 7L20 7L20 5L8 5L8 0L6 0z"/>
<path style="fill:#1f4d8f; stroke:none;" d="M8 0L8 4L9 4L8 0z"/>
<path style="fill:#ffffff; stroke:none;" d="M9 0L9 4L20 4L20 0L9 0z"/>
<path style="fill:#5579ab; stroke:none;" d="M0 4L0 5L5 5L0 4z"/>
<path style="fill:#2d5997; stroke:none;" d="M5 4L6 5L5 4z"/>
<path style="fill:#0b3d85; stroke:none;" d="M8 4L9 5L8 4z"/>
<path style="fill:#5579ab; stroke:none;" d="M9 4L9 5L20 5L9 4M0 7L0 8L5 8L0 7z"/>
<path style="fill:#2d5997; stroke:none;" d="M5 7L6 8L5 7z"/>
<path style="fill:#0b3d85; stroke:none;" d="M8 7L9 8L8 7z"/>
<path style="fill:#5579ab; stroke:none;" d="M9 7L9 8L20 8L9 7z"/>
<path style="fill:#ffffff; stroke:none;" d="M0 8L0 12L5 12L5 8L0 8z"/>
<path style="fill:#87a1c3; stroke:none;" d="M5 8L5 12L6 12L5 8z"/>
<path style="fill:#1f4d8f; stroke:none;" d="M8 8L8 12L9 12L8 8z"/>
<path style="fill:#ffffff; stroke:none;" d="M9 8L9 12L20 12L20 8L9 8z"/>
</svg>
