<?xml version="1.0" standalone="yes"?>
<svg width="18" height="12">
<path style="fill:#0199cd; stroke:none;" d="M0 0L7 5L0 0z"/>
<path style="fill:#0f9fcf; stroke:none;" d="M2 0L3 1L2 0z"/>
<path style="fill:#9dd7eb; stroke:none;" d="M3 0L4 1L3 0z"/>
<path style="fill:#ffffff; stroke:none;" d="M4 0L4 1L18 9L18 0L4 0z"/>
<path style="fill:#119fcf; stroke:none;" d="M0 1L1 2L0 1z"/>
<path style="fill:#47b5db; stroke:none;" d="M4 1L5 2L4 1z"/>
<path style="fill:#e3f3f9; stroke:none;" d="M5 1L6 2L5 1z"/>
<path style="fill:#fdfdfd; stroke:none;" d="M8 1L9 2L8 1z"/>
<path style="fill:#e5f5fb; stroke:none;" d="M0 2L1 3L0 2z"/>
<path style="fill:#4bb7db; stroke:none;" d="M1 2L2 3L1 2z"/>
<path style="fill:#0f9fcf; stroke:none;" d="M5 2L6 3L5 2z"/>
<path style="fill:#9bd7eb; stroke:none;" d="M6 2L7 3L6 2z"/>
<path style="fill:#f1f1e7; stroke:none;" d="M7 2L8 3L7 2z"/>
<path style="fill:#c7c7af; stroke:none;" d="M8 2L9 3L8 2z"/>
<path style="fill:#d5d3bf; stroke:none;" d="M9 2L10 3L9 2z"/>
<path style="fill:#f9f9f7; stroke:none;" d="M10 2L11 3L10 2z"/>
<path style="fill:#ffffff; stroke:none;" d="M0 3L0 12L14 12L14 11L8 10L0 3z"/>
<path style="fill:#a1d9ed; stroke:none;" d="M2 3L3 4L2 3z"/>
<path style="fill:#11a1cf; stroke:none;" d="M3 3L4 4L3 3z"/>
<path style="fill:#7f8371; stroke:none;" d="M7 3L8 4L7 3z"/>
<path style="fill:#b77531; stroke:none;" d="M8 3L9 4L8 3z"/>
<path style="fill:#bd733d; stroke:none;" d="M9 3L10 4L9 3z"/>
<path style="fill:#cdbb9f; stroke:none;" d="M10 3L11 4L10 3z"/>
<path style="fill:#e5f5fb; stroke:none;" d="M3 4L4 5L3 4z"/>
<path style="fill:#4db7db; stroke:none;" d="M4 4L5 5L4 4z"/>
<path style="fill:#4f6f71; stroke:none;" d="M7 4L8 5L7 4z"/>
<path style="fill:#936333; stroke:none;" d="M8 4L9 5L8 4z"/>
<path style="fill:#a36935; stroke:none;" d="M9 4L10 5L9 4z"/>
<path style="fill:#d7cdc3; stroke:none;" d="M10 4L11 5L10 4z"/>
<path style="fill:#a3dbed; stroke:none;" d="M5 5L6 6L5 5z"/>
<path style="fill:#11a1cf; stroke:none;" d="M6 5L7 6L6 5z"/>
<path style="fill:#3377b3; stroke:none;" d="M7 5L8 6L7 5z"/>
<path style="fill:#2d71bd; stroke:none;" d="M8 5L9 6L8 5z"/>
<path style="fill:#1363bd; stroke:none;" d="M9 5L10 6L9 5z"/>
<path style="fill:#3f87c1; stroke:none;" d="M10 5L11 6L10 5z"/>
<path style="fill:#e1f3f9; stroke:none;" d="M11 5L12 6L11 5z"/>
<path style="fill:#e7f5fb; stroke:none;" d="M6 6L7 7L6 6z"/>
<path style="fill:#3979b3; stroke:none;" d="M7 6L8 7L7 6z"/>
<path style="fill:#578195; stroke:none;" d="M8 6L9 7L8 6z"/>
<path style="fill:#3b7399; stroke:none;" d="M9 6L10 7L9 6z"/>
<path style="fill:#2b7fbd; stroke:none;" d="M10 6L11 7L10 6z"/>
<path style="fill:#0d9fcf; stroke:none;" d="M11 6L12 7L11 6z"/>
<path style="fill:#99d7eb; stroke:none;" d="M12 6L13 7L12 6z"/>
<path style="fill:#4f81b7; stroke:none;" d="M7 7L8 8L7 7z"/>
<path style="fill:#537b6b; stroke:none;" d="M8 7L9 8L8 7z"/>
<path style="fill:#2f6d91; stroke:none;" d="M9 7L10 8L9 7z"/>
<path style="fill:#297db7; stroke:none;" d="M10 7L11 8L10 7z"/>
<path style="fill:#0199cd; stroke:none;" d="M11 7L18 12L11 7z"/>
<path style="fill:#45b5db; stroke:none;" d="M13 7L14 8L13 7z"/>
<path style="fill:#dff3f9; stroke:none;" d="M14 7L15 8L14 7z"/>
<path style="fill:#8db1db; stroke:none;" d="M7 8L8 9L7 8z"/>
<path style="fill:#4b7973; stroke:none;" d="M8 8L9 9L8 8z"/>
<path style="fill:#296995; stroke:none;" d="M9 8L10 9L9 8z"/>
<path style="fill:#3b97c7; stroke:none;" d="M10 8L11 9L10 8z"/>
<path style="fill:#0d9fcf; stroke:none;" d="M14 8L15 9L14 8z"/>
<path style="fill:#97d5eb; stroke:none;" d="M15 8L16 9L15 8z"/>
<path style="fill:#e1e9f3; stroke:none;" d="M8 9L9 10L8 9z"/>
<path style="fill:#ebf1f7; stroke:none;" d="M9 9L10 10L9 9z"/>
<path style="fill:#a5dbed; stroke:none;" d="M11 9L12 10L11 9z"/>
<path style="fill:#13a1d1; stroke:none;" d="M12 9L13 10L12 9z"/>
<path style="fill:#43b3d9; stroke:none;" d="M16 9L17 10L16 9z"/>
<path style="fill:#dff3f9; stroke:none;" d="M17 9L18 10L17 9z"/>
<path style="fill:#e9f7fb; stroke:none;" d="M12 10L13 11L12 10z"/>
<path style="fill:#51b9dd; stroke:none;" d="M13 10L14 11L13 10z"/>
<path style="fill:#0d9fcf; stroke:none;" d="M17 10L18 11L17 10z"/>
<path style="fill:#a7dbed; stroke:none;" d="M14 11L15 12L14 11z"/>
<path style="fill:#13a1d1; stroke:none;" d="M15 11L16 12L15 11z"/>
</svg>
