<?xml version="1.0" standalone="yes"?>
<svg width="18" height="12">
<path style="fill:#ff9933; stroke:none;" d="M0 0L0 4L18 4L18 0L0 0z"/>
<path style="fill:#ffffff; stroke:none;" d="M0 4L0 8L7 8L7 4L0 4z"/>
<path style="fill:#f9f9fd; stroke:none;" d="M7 4L8 5L7 4z"/>
<path style="fill:#9b9bd1; stroke:none;" d="M8.66667 4.33333L9.33333 4.66667L8.66667 4.33333z"/>
<path style="fill:#f9f9fd; stroke:none;" d="M10 4L11 5L10 4z"/>
<path style="fill:#ffffff; stroke:none;" d="M11 4L11 8L18 8L18 4L11 4z"/>
<path style="fill:#9f9fd3; stroke:none;" d="M7 5L8 6L7 5z"/>
<path style="fill:#b5b5dd; stroke:none;" d="M8 5L9 6L8 5z"/>
<path style="fill:#b5b5db; stroke:none;" d="M9 5L8 7L9 5z"/>
<path style="fill:#a1a1d3; stroke:none;" d="M10.3333 5.66667L10.6667 6.33333L10.3333 5.66667M7 6L8 7L7 6z"/>
<path style="fill:#b3b3db; stroke:none;" d="M9 6L10 7L9 6z"/>
<path style="fill:#f9f9fd; stroke:none;" d="M7 7L8 8L7 7z"/>
<path style="fill:#9999d1; stroke:none;" d="M8 7L9 8L8 7z"/>
<path style="fill:#9999d3; stroke:none;" d="M9 7L10 8L9 7z"/>
<path style="fill:#f9f9fd; stroke:none;" d="M10 7L11 8L10 7z"/>
<path style="fill:#138907; stroke:none;" d="M0 8L0 12L18 12L18 8L0 8z"/>
</svg>
