<?xml version="1.0" standalone="yes"?>
<svg width="18" height="12">
<path style="fill:#010199; stroke:none;" d="M0 0L0 3L18 3L18 0L0 0z"/>
<path style="fill:#cd0101; stroke:none;" d="M0 3L0 9L5 4L8 5L0 3z"/>
<path style="fill:#d52727; stroke:none;" d="M8.66667 3.33333L9.33333 3.66667L8.66667 3.33333z"/>
<path style="fill:#cd0101; stroke:none;" d="M10 5L13 4L18 9L18 3L10 5z"/>
<path style="fill:#d93b3b; stroke:none;" d="M5.66667 4.33333L6.33333 4.66667L5.66667 4.33333z"/>
<path style="fill:#e37979; stroke:none;" d="M8.66667 4.33333L9.33333 4.66667L8.66667 4.33333z"/>
<path style="fill:#d73535; stroke:none;" d="M11 4L12 5L11 4z"/>
<path style="fill:#d73737; stroke:none;" d="M12 4L13 5L12 4z"/>
<path style="fill:#efb1b1; stroke:none;" d="M5 5L6 6L5 5z"/>
<path style="fill:#efb5b5; stroke:none;" d="M6 5L7 6L6 5z"/>
<path style="fill:#df5757; stroke:none;" d="M7 5L8 6L7 5z"/>
<path style="fill:#f7d1d1; stroke:none;" d="M8.66667 5.33333L9.33333 5.66667L8.66667 5.33333z"/>
<path style="fill:#df5757; stroke:none;" d="M10 5L11 6L10 5z"/>
<path style="fill:#f1b3b3; stroke:none;" d="M11 5L12 6L11 5z"/>
<path style="fill:#efafaf; stroke:none;" d="M12 5L13 6L12 5z"/>
<path style="fill:#f5d1d1; stroke:none;" d="M5 6L6 7L5 6z"/>
<path style="fill:#f7d9d9; stroke:none;" d="M6 6L7 7L6 6z"/>
<path style="fill:#fbebeb; stroke:none;" d="M7 6L8 7L7 6z"/>
<path style="fill:#f3cfcf; stroke:none;" d="M8 6L9 7L8 6z"/>
<path style="fill:#f7e1e1; stroke:none;" d="M9 6L10 7L9 6z"/>
<path style="fill:#f9e5e5; stroke:none;" d="M10 6L11 7L10 6z"/>
<path style="fill:#f5d1d1; stroke:none;" d="M11 6L12 7L11 6z"/>
<path style="fill:#fbe9e9; stroke:none;" d="M12 6L13 7L12 6z"/>
<path style="fill:#db4545; stroke:none;" d="M4 7L5 8L4 7z"/>
<path style="fill:#f5c5c5; stroke:none;" d="M5.66667 7.33333L6.33333 7.66667L5.66667 7.33333z"/>
<path style="fill:#f1c3c3; stroke:none;" d="M7 7L8 8L7 7z"/>
<path style="fill:#f5c9c9; stroke:none;" d="M8 7L9 8L8 7z"/>
<path style="fill:#f7d5d5; stroke:none;" d="M9 7L10 8L9 7z"/>
<path style="fill:#f1c1c1; stroke:none;" d="M10 7L11 8L10 7z"/>
<path style="fill:#f3c3c3; stroke:none;" d="M11 7L12 8L11 7z"/>
<path style="fill:#f5c5c5; stroke:none;" d="M12 7L13 8L12 7z"/>
<path style="fill:#d93b3b; stroke:none;" d="M13 7L14 8L13 7z"/>
<path style="fill:#cf0b0b; stroke:none;" d="M3 8L4 9L3 8z"/>
<path style="fill:#e78787; stroke:none;" d="M4 8L5 9L4 8z"/>
<path style="fill:#efa1a1; stroke:none;" d="M5.66667 8.33333L6.33333 8.66667L5.66667 8.33333z"/>
<path style="fill:#eb9595; stroke:none;" d="M7 8L8 9L7 8z"/>
<path style="fill:#ed9d9d; stroke:none;" d="M8 8L9 9L8 8z"/>
<path style="fill:#efa3a3; stroke:none;" d="M9 8L10 9L9 8z"/>
<path style="fill:#eb9595; stroke:none;" d="M10 8L11 9L10 8z"/>
<path style="fill:#efa1a1; stroke:none;" d="M11.6667 8.33333L12.3333 8.66667L11.6667 8.33333z"/>
<path style="fill:#e78787; stroke:none;" d="M13 8L14 9L13 8z"/>
<path style="fill:#cf0b0b; stroke:none;" d="M14 8L15 9L14 8z"/>
<path style="fill:#010199; stroke:none;" d="M0 9L0 12L18 12L18 9L0 9z"/>
</svg>
