<?xml version="1.0" standalone="yes"?>
<svg width="18" height="12">
<path style="fill:#ffffff; stroke:none;" d="M0 0L0 12L18 12L18 0L0 0z"/>
<path style="fill:#fbfbfb; stroke:none;" d="M3 1L4 2L3 1z"/>
<path style="fill:#c3c3c3; stroke:none;" d="M4 1L5 2L4 1z"/>
<path style="fill:#f5f5f5; stroke:none;" d="M5 1L6 2L5 1z"/>
<path style="fill:#f3f3f3; stroke:none;" d="M12 1L13 2L12 1z"/>
<path style="fill:#c1c1c1; stroke:none;" d="M13 1L14 2L13 1z"/>
<path style="fill:#fbfbfb; stroke:none;" d="M14 1L15 2L14 1z"/>
<path style="fill:#c1c1c1; stroke:none;" d="M3 2L4 3L3 2z"/>
<path style="fill:#8f8f8f; stroke:none;" d="M4.33333 2.66667L4.66667 3.33333L4.33333 2.66667z"/>
<path style="fill:#a7a7a7; stroke:none;" d="M5 2L6 3L5 2z"/>
<path style="fill:#fffdfd; stroke:none;" d="M8.66667 2.33333L9.33333 2.66667L8.66667 2.33333z"/>
<path style="fill:#fdfdfd; stroke:none;" d="M11 2L12 3L11 2z"/>
<path style="fill:#a3a3a3; stroke:none;" d="M12 2L13 3L12 2z"/>
<path style="fill:#979797; stroke:none;" d="M13 2L14 3L13 2z"/>
<path style="fill:#d7d7d7; stroke:none;" d="M14 2L15 3L14 2z"/>
<path style="fill:#f1f1f1; stroke:none;" d="M2 3L3 4L2 3z"/>
<path style="fill:#979797; stroke:none;" d="M3 3L4 4L3 3z"/>
<path style="fill:#e3e3e3; stroke:none;" d="M5 3L6 4L5 3z"/>
<path style="fill:#e1abaf; stroke:none;" d="M7 3L8 4L7 3z"/>
<path style="fill:#cb4f5b; stroke:none;" d="M8 3L9 4L8 3z"/>
<path style="fill:#cd515d; stroke:none;" d="M9 3L10 4L9 3z"/>
<path style="fill:#e1b1b3; stroke:none;" d="M10 3L11 4L10 3z"/>
<path style="fill:#ffffff; stroke:none;" d="M11 3L13 5L11 3z"/>
<path style="fill:#e9e9e9; stroke:none;" d="M12 3L13 4L12 3z"/>
<path style="fill:#9d9d9d; stroke:none;" d="M13 3L14 4L13 3z"/>
<path style="fill:#999999; stroke:none;" d="M14 3L15 4L14 3z"/>
<path style="fill:#f5f5f5; stroke:none;" d="M15 3L16 4L15 3z"/>
<path style="fill:#efefef; stroke:none;" d="M3 4L4 5L3 4z"/>
<path style="fill:#d1d1d1; stroke:none;" d="M4 4L5 5L4 4z"/>
<path style="fill:#ffffff; stroke:none;" d="M5 4L6 5L5 4z"/>
<path style="fill:#dda7a9; stroke:none;" d="M6 4L7 5L6 4z"/>
<path style="fill:#c30101; stroke:none;" d="M7 4L8 5L7 4z"/>
<path style="fill:#c70129; stroke:none;" d="M8 4L9 5L8 4z"/>
<path style="fill:#c90121; stroke:none;" d="M9 4L10 5L9 4z"/>
<path style="fill:#c70101; stroke:none;" d="M10 4L11 5L10 4z"/>
<path style="fill:#e3afb1; stroke:none;" d="M11 4L12 5L11 4z"/>
<path style="fill:#cfcfcf; stroke:none;" d="M13 4L14 5L13 4z"/>
<path style="fill:#f1f1f1; stroke:none;" d="M14 4L15 5L14 4z"/>
<path style="fill:#f7f9fb; stroke:none;" d="M5 5L6 6L5 5z"/>
<path style="fill:#b74961; stroke:none;" d="M6 5L7 6L6 5z"/>
<path style="fill:#cb011d; stroke:none;" d="M7 5L8 6L7 5z"/>
<path style="fill:#c9092d; stroke:none;" d="M8 5L9 6L8 5z"/>
<path style="fill:#95255b; stroke:none;" d="M9 5L10 6L9 5z"/>
<path style="fill:#751f63; stroke:none;" d="M10 5L11 6L10 5z"/>
<path style="fill:#bf5567; stroke:none;" d="M11 5L12 6L11 5z"/>
<path style="fill:#fffbfb; stroke:none;" d="M12.3333 5.66667L12.6667 6.33333L12.3333 5.66667z"/>
<path style="fill:#f9f9fb; stroke:none;" d="M5 6L6 7L5 6z"/>
<path style="fill:#675581; stroke:none;" d="M6 6L7 7L6 6z"/>
<path style="fill:#9d1353; stroke:none;" d="M7 6L8 7L7 6z"/>
<path style="fill:#7f2965; stroke:none;" d="M8 6L9 7L8 6z"/>
<path style="fill:#01357b; stroke:none;" d="M9 6L10 7L9 6z"/>
<path style="fill:#012b79; stroke:none;" d="M10 6L11 7L10 6z"/>
<path style="fill:#7d5f85; stroke:none;" d="M11 6L12 7L11 6z"/>
<path style="fill:#ebebeb; stroke:none;" d="M3 7L4 8L3 7z"/>
<path style="fill:#c9c9c9; stroke:none;" d="M4 7L5 8L4 7z"/>
<path style="fill:#ffffff; stroke:none;" d="M5 7L6 8L5 7z"/>
<path style="fill:#adb1c1; stroke:none;" d="M6 7L7 8L6 7z"/>
<path style="fill:#01016b; stroke:none;" d="M7 7L8 8L7 7z"/>
<path style="fill:#012977; stroke:none;" d="M8 7L9 8L8 7z"/>
<path style="fill:#012775; stroke:none;" d="M9 7L10 8L9 7z"/>
<path style="fill:#010169; stroke:none;" d="M10 7L11 8L10 7z"/>
<path style="fill:#b7b9c7; stroke:none;" d="M11 7L12 8L11 7z"/>
<path style="fill:#ffffff; stroke:none;" d="M12 7L11 9L12 7z"/>
<path style="fill:#c7c7c7; stroke:none;" d="M13 7L14 8L13 7z"/>
<path style="fill:#ededed; stroke:none;" d="M14 7L15 8L14 7z"/>
<path style="fill:#f1f1f1; stroke:none;" d="M2 8L3 9L2 8z"/>
<path style="fill:#959595; stroke:none;" d="M3 8L4 9L3 8z"/>
<path style="fill:#9f9f9f; stroke:none;" d="M4 8L5 9L4 8z"/>
<path style="fill:#dddddd; stroke:none;" d="M5 8L6 9L5 8z"/>
<path style="fill:#b7bbc7; stroke:none;" d="M7 8L8 9L7 8z"/>
<path style="fill:#616d93; stroke:none;" d="M8 8L9 9L8 8z"/>
<path style="fill:#636f93; stroke:none;" d="M9 8L10 9L9 8z"/>
<path style="fill:#bbbfcb; stroke:none;" d="M10 8L11 9L10 8z"/>
<path style="fill:#e5e5e5; stroke:none;" d="M12 8L13 9L12 8z"/>
<path style="fill:#ababab; stroke:none;" d="M13 8L14 9L13 8z"/>
<path style="fill:#979797; stroke:none;" d="M14 8L15 9L14 8z"/>
<path style="fill:#f5f5f5; stroke:none;" d="M15 8L16 9L15 8z"/>
<path style="fill:#c7c7c7; stroke:none;" d="M3 9L4 10L3 9z"/>
<path style="fill:#9b9b9b; stroke:none;" d="M4 9L5 10L4 9z"/>
<path style="fill:#a9a9a9; stroke:none;" d="M5 9L6 10L5 9z"/>
<path style="fill:#fdfdfd; stroke:none;" d="M11 9L12 10L11 9z"/>
<path style="fill:#a3a3a3; stroke:none;" d="M12.6667 9.33333L13.3333 9.66667L12.6667 9.33333z"/>
<path style="fill:#dbdbdb; stroke:none;" d="M14 9L15 10L14 9z"/>
<path style="fill:#fbfbfb; stroke:none;" d="M3 10L4 11L3 10z"/>
<path style="fill:#c9c9c9; stroke:none;" d="M4 10L5 11L4 10z"/>
<path style="fill:#f7f7f7; stroke:none;" d="M5 10L6 11L5 10M12 10L13 11L12 10z"/>
<path style="fill:#c9c9c9; stroke:none;" d="M13 10L14 11L13 10z"/>
<path style="fill:#fdfdfd; stroke:none;" d="M14 10L15 11L14 10z"/>
</svg>
