<?xml version="1.0" standalone="yes"?>
<svg width="24" height="12">
<path style="fill:#dd171d; stroke:none;" d="M0 0L0 12L8 12L8 0L0 0z"/>
<path style="fill:#47afcf; stroke:none;" d="M8 0L8 12L16 12L16 0L8 0z"/>
<path style="fill:#dd171d; stroke:none;" d="M16 0L16 12L24 12L24 0L16 0z"/>
<path style="fill:#e12f1b; stroke:none;" d="M3.66667 1.33333L4.33333 1.66667L3.66667 1.33333z"/>
<path style="fill:#e55119; stroke:none;" d="M3 2L4 3L3 2z"/>
<path style="fill:#e54f19; stroke:none;" d="M4 2L5 3L4 2z"/>
<path style="fill:#dd1b1d; stroke:none;" d="M2 3L3 4L2 3z"/>
<path style="fill:#ef9515; stroke:none;" d="M3.66667 3.33333L4.33333 3.66667L3.66667 3.33333z"/>
<path style="fill:#dd191d; stroke:none;" d="M5 3L6 4L5 3z"/>
<path style="fill:#dd1f1d; stroke:none;" d="M2 4L3 5L2 4z"/>
<path style="fill:#ef8b15; stroke:none;" d="M3 4L4 5L3 4z"/>
<path style="fill:#ed8b15; stroke:none;" d="M4 4L5 5L4 4z"/>
<path style="fill:#dd1d1b; stroke:none;" d="M5 4L6 5L5 4z"/>
<path style="fill:#e1331b; stroke:none;" d="M1 5L2 6L1 5z"/>
<path style="fill:#ed8915; stroke:none;" d="M2 5L3 6L2 5z"/>
<path style="fill:#e96d17; stroke:none;" d="M3.66667 5.33333L4.33333 5.66667L3.66667 5.33333z"/>
<path style="fill:#ed8915; stroke:none;" d="M5 5L6 6L5 5z"/>
<path style="fill:#e1331b; stroke:none;" d="M6 5L7 6L6 5z"/>
<path style="fill:#e34119; stroke:none;" d="M1 6L1 10L2 10L1 6z"/>
<path style="fill:#f5c113; stroke:none;" d="M2 6L2 10L3 10L2 6z"/>
<path style="fill:#eb8115; stroke:none;" d="M3 6L4 7L3 6z"/>
<path style="fill:#eb7b17; stroke:none;" d="M4 6L5 7L4 6z"/>
<path style="fill:#f5c113; stroke:none;" d="M5 6L5 10L6 10L5 6z"/>
<path style="fill:#e34119; stroke:none;" d="M6 6L6 10L7 10L6 6z"/>
<path style="fill:#f5c311; stroke:none;" d="M3 7L4 8L3 7z"/>
<path style="fill:#f3b711; stroke:none;" d="M4 7L5 8L4 7z"/>
<path style="fill:#ed7d17; stroke:none;" d="M3 8L4 9L3 8z"/>
<path style="fill:#ef8915; stroke:none;" d="M4 8L5 9L4 8z"/>
<path style="fill:#ef9715; stroke:none;" d="M3.66667 9.33333L4.33333 9.66667L3.66667 9.33333z"/>
<path style="fill:#dd1d1b; stroke:none;" d="M1 10L2 11L1 10z"/>
<path style="fill:#e12f1b; stroke:none;" d="M2 10L3 11L2 10z"/>
<path style="fill:#dd1d1b; stroke:none;" d="M3.66667 10.3333L4.33333 10.6667L3.66667 10.3333z"/>
<path style="fill:#e12f1b; stroke:none;" d="M5 10L6 11L5 10z"/>
<path style="fill:#dd1d1b; stroke:none;" d="M6 10L7 11L6 10z"/>
</svg>
