<?xml version="1.0" standalone="yes"?>
<svg width="24" height="12">
<path style="fill:#010145; stroke:none;" d="M0 0L0 5L1 5L3 0L0 0z"/>
<path style="fill:#010143; stroke:none;" d="M1 0L2 1L1 0z"/>
<path style="fill:#01013d; stroke:none;" d="M3 0L4 1L3 0z"/>
<path style="fill:#090725; stroke:none;" d="M4 0L5 1L4 0z"/>
<path style="fill:#05032d; stroke:none;" d="M5 0L6 1L5 0z"/>
<path style="fill:#010143; stroke:none;" d="M6 0L7 1L6 0z"/>
<path style="fill:#010145; stroke:none;" d="M7 0L7 1L11 1L7 0z"/>
<path style="fill:#03013b; stroke:none;" d="M11 0L12 1L11 0z"/>
<path style="fill:#ed0d17; stroke:none;" d="M12 0L13 1L12 0z"/>
<path style="fill:#fb1313; stroke:none;" d="M13 0L13 1L24 1L13 0z"/>
<path style="fill:#030135; stroke:none;" d="M2 1L3 2L2 1z"/>
<path style="fill:#9f5909; stroke:none;" d="M3 1L4 2L3 1z"/>
<path style="fill:#432311; stroke:none;" d="M4 1L5 2L4 1z"/>
<path style="fill:#05032b; stroke:none;" d="M5 1L6 2L5 1z"/>
<path style="fill:#030135; stroke:none;" d="M6 1L7 2L6 1z"/>
<path style="fill:#05032b; stroke:none;" d="M7 1L8 2L7 1z"/>
<path style="fill:#010137; stroke:none;" d="M8 1L10 3L8 1z"/>
<path style="fill:#010143; stroke:none;" d="M9.66667 1.33333L10.3333 1.66667L9.66667 1.33333z"/>
<path style="fill:#030151; stroke:none;" d="M11 1L12 2L11 1z"/>
<path style="fill:#f795b3; stroke:none;" d="M12 1L13 2L12 1z"/>
<path style="fill:#ffc1c1; stroke:none;" d="M13 1L14 2L13 1z"/>
<path style="fill:#fdbfc1; stroke:none;" d="M14 1L14 2L24 2L14 1z"/>
<path style="fill:#010147; stroke:none;" d="M1 2L2 3L1 2z"/>
<path style="fill:#65330d; stroke:none;" d="M2 2L3 3L2 2z"/>
<path style="fill:#9d5709; stroke:none;" d="M3 2L4 3L3 2z"/>
<path style="fill:#010145; stroke:none;" d="M4 2L5 3L4 2z"/>
<path style="fill:#010139; stroke:none;" d="M5 2L6 3L5 2z"/>
<path style="fill:#7d410b; stroke:none;" d="M6 2L7 3L6 2z"/>
<path style="fill:#f5cb03; stroke:none;" d="M7 2L8 3L7 2z"/>
<path style="fill:#7d410b; stroke:none;" d="M8 2L9 3L8 2z"/>
<path style="fill:#010145; stroke:none;" d="M10.3333 2.66667L10.6667 3.33333L10.3333 2.66667z"/>
<path style="fill:#030149; stroke:none;" d="M11.3333 2.66667L11.6667 3.33333L11.3333 2.66667z"/>
<path style="fill:#f34763; stroke:none;" d="M12.3333 2.66667L12.6667 3.33333L12.3333 2.66667z"/>
<path style="fill:#fd6969; stroke:none;" d="M13.3333 2.66667L13.6667 3.33333L13.3333 2.66667z"/>
<path style="fill:#fd6769; stroke:none;" d="M14 2L14 4L24 4L24 2L14 2z"/>
<path style="fill:#bd7307; stroke:none;" d="M2 3L3 4L2 3z"/>
<path style="fill:#351b13; stroke:none;" d="M3 3L4 4L3 3z"/>
<path style="fill:#010149; stroke:none;" d="M4 3L5 4L4 3z"/>
<path style="fill:#05032d; stroke:none;" d="M5 3L6 4L5 3z"/>
<path style="fill:#f1c103; stroke:none;" d="M6 3L7 4L6 3z"/>
<path style="fill:#fff901; stroke:none;" d="M7 3L8 4L7 3z"/>
<path style="fill:#f1c103; stroke:none;" d="M8 3L9 4L8 3z"/>
<path style="fill:#05032d; stroke:none;" d="M9 3L10 4L9 3z"/>
<path style="fill:#010147; stroke:none;" d="M1 4L0 6L2 6L1 4z"/>
<path style="fill:#47250f; stroke:none;" d="M2 4L3 5L2 4z"/>
<path style="fill:#b36907; stroke:none;" d="M3 4L4 5L3 4z"/>
<path style="fill:#01013f; stroke:none;" d="M4 4L5 5L4 4z"/>
<path style="fill:#01013d; stroke:none;" d="M5 4L6 5L5 4z"/>
<path style="fill:#4f290f; stroke:none;" d="M6 4L7 5L6 4z"/>
<path style="fill:#e3a703; stroke:none;" d="M7 4L8 5L7 4z"/>
<path style="fill:#4f290f; stroke:none;" d="M8 4L9 5L8 4z"/>
<path style="fill:#01013b; stroke:none;" d="M9 4L10 5L9 4z"/>
<path style="fill:#010143; stroke:none;" d="M10 4L11 5L10 4z"/>
<path style="fill:#030151; stroke:none;" d="M11 4L12 5L11 4z"/>
<path style="fill:#f795b1; stroke:none;" d="M12 4L13 5L12 4z"/>
<path style="fill:#ffc1bf; stroke:none;" d="M13 4L14 5L13 4z"/>
<path style="fill:#fdbfbf; stroke:none;" d="M14 4L14 5L24 5L14 4z"/>
<path style="fill:#01013d; stroke:none;" d="M2 5L3 6L2 5z"/>
<path style="fill:#69390d; stroke:none;" d="M3 5L4 6L3 5z"/>
<path style="fill:#4f2b0f; stroke:none;" d="M4 5L5 6L4 5z"/>
<path style="fill:#07052b; stroke:none;" d="M5 5L6 6L5 5z"/>
<path style="fill:#01013b; stroke:none;" d="M6 5L7 6L6 5z"/>
<path style="fill:#030135; stroke:none;" d="M7 5L8 6L7 5z"/>
<path style="fill:#01013f; stroke:none;" d="M8 5L9 6L8 5z"/>
<path style="fill:#010147; stroke:none;" d="M9.66667 5.33333L10.3333 5.66667L9.66667 5.33333z"/>
<path style="fill:#030143; stroke:none;" d="M11 5L12 6L11 5z"/>
<path style="fill:#f12135; stroke:none;" d="M12 5L13 6L12 5z"/>
<path style="fill:#fb3331; stroke:none;" d="M13 5L14 6L13 5z"/>
<path style="fill:#fb3133; stroke:none;" d="M14 5L14 6L24 6L14 5z"/>
<path style="fill:#07011d; stroke:none;" d="M0 6L0 7L4 7L0 6z"/>
<path style="fill:#150113; stroke:none;" d="M4 6L5 7L4 6z"/>
<path style="fill:#110117; stroke:none;" d="M5 6L6 7L5 6z"/>
<path style="fill:#07011d; stroke:none;" d="M6 6L6 7L11 7L6 6z"/>
<path style="fill:#13012b; stroke:none;" d="M11 6L12 7L11 6z"/>
<path style="fill:#f9a7bd; stroke:none;" d="M12 6L13 7L12 6z"/>
<path style="fill:#ffd1d1; stroke:none;" d="M13 6L14 7L13 6z"/>
<path style="fill:#ffcfcf; stroke:none;" d="M14 6L14 7L24 7L14 6z"/>
<path style="fill:#f72731; stroke:none;" d="M0 7L0 8L4 8L0 7z"/>
<path style="fill:#f72531; stroke:none;" d="M4.66667 7.33333L5.33333 7.66667L4.66667 7.33333z"/>
<path style="fill:#f72731; stroke:none;" d="M6 7L6 8L11 8L6 7z"/>
<path style="fill:#f92933; stroke:none;" d="M11 7L12 8L11 7z"/>
<path style="fill:#fb3f41; stroke:none;" d="M12 7L13 8L12 7z"/>
<path style="fill:#fd4343; stroke:none;" d="M13 7L14 8L13 7z"/>
<path style="fill:#fd4143; stroke:none;" d="M14 7L14 8L24 8L14 7z"/>
<path style="fill:#fd9b9b; stroke:none;" d="M0 8L0 9L12 9L0 8z"/>
<path style="fill:#fd9999; stroke:none;" d="M0 9L0 10L24 10L24 8L0 9z"/>
<path style="fill:#fb4141; stroke:none;" d="M0 10L0 11L24 11L0 10z"/>
<path style="fill:#ffeded; stroke:none;" d="M0 11L0 12L24 12L0 11z"/>
</svg>
