<?xml version="1.0" standalone="yes"?>
<svg width="17" height="12">
<path style="fill:#01933f; stroke:none;" d="M0 0L0 12L17 12L17 0L0 0z"/>
<path style="fill:#09953d; stroke:none;" d="M7 1L8 2L7 1z"/>
<path style="fill:#5fa527; stroke:none;" d="M8 1L9 2L8 1z"/>
<path style="fill:#09953d; stroke:none;" d="M9 1L10 2L9 1z"/>
<path style="fill:#419f2f; stroke:none;" d="M6 2L7 3L6 2z"/>
<path style="fill:#d7bd09; stroke:none;" d="M7 2L8 3L7 2z"/>
<path style="fill:#f9c301; stroke:none;" d="M8 2L9 3L8 2z"/>
<path style="fill:#d7bd09; stroke:none;" d="M9 2L10 3L9 2z"/>
<path style="fill:#419f2f; stroke:none;" d="M10 2L11 3L10 2z"/>
<path style="fill:#11953b; stroke:none;" d="M4 3L5 4L4 3z"/>
<path style="fill:#99b119; stroke:none;" d="M5 3L6 4L5 3z"/>
<path style="fill:#cfa117; stroke:none;" d="M6 3L7 4L6 3z"/>
<path style="fill:#593f55; stroke:none;" d="M7 3L8 4L7 3z"/>
<path style="fill:#331f6b; stroke:none;" d="M8 3L9 4L8 3z"/>
<path style="fill:#593f55; stroke:none;" d="M9 3L10 4L9 3z"/>
<path style="fill:#cfa117; stroke:none;" d="M10 3L11 4L10 3z"/>
<path style="fill:#99b119; stroke:none;" d="M11 3L12 4L11 3z"/>
<path style="fill:#11953b; stroke:none;" d="M12 3L13 4L12 3z"/>
<path style="fill:#51a32b; stroke:none;" d="M3 4L4 5L3 4z"/>
<path style="fill:#e1bf07; stroke:none;" d="M4 4L5 5L4 4z"/>
<path style="fill:#e3b50f; stroke:none;" d="M5 4L6 5L5 4z"/>
<path style="fill:#5f5b83; stroke:none;" d="M6 4L7 5L6 4z"/>
<path style="fill:#534d8b; stroke:none;" d="M7.33333 4.66667L7.66667 5.33333L7.33333 4.66667z"/>
<path style="fill:#352777; stroke:none;" d="M8 4L9 5L8 4z"/>
<path style="fill:#29176f; stroke:none;" d="M9 4L10 5L9 4z"/>
<path style="fill:#372367; stroke:none;" d="M10 4L11 5L10 4z"/>
<path style="fill:#e7b50b; stroke:none;" d="M11 4L12 5L11 4z"/>
<path style="fill:#e1bf07; stroke:none;" d="M12 4L13 5L12 4z"/>
<path style="fill:#51a32b; stroke:none;" d="M13 4L14 5L13 4z"/>
<path style="fill:#199739; stroke:none;" d="M1.33333 5.66667L1.66667 6.33333L1.33333 5.66667z"/>
<path style="fill:#a9b315; stroke:none;" d="M2.33333 5.66667L2.66667 6.33333L2.33333 5.66667z"/>
<path style="fill:#f9c301; stroke:none;" d="M3 5L3 7L5 7L5 5L3 5z"/>
<path style="fill:#b39141; stroke:none;" d="M5 5L6 6L5 5z"/>
<path style="fill:#534985; stroke:none;" d="M6 5L7 6L6 5z"/>
<path style="fill:#71719d; stroke:none;" d="M8 5L9 6L8 5z"/>
<path style="fill:#8587ab; stroke:none;" d="M9 5L10 6L9 5z"/>
<path style="fill:#534f89; stroke:none;" d="M10 5L11 6L10 5z"/>
<path style="fill:#ab832b; stroke:none;" d="M11 5L12 6L11 5z"/>
<path style="fill:#f9c301; stroke:none;" d="M12 5L12 7L14 7L14 5L12 5z"/>
<path style="fill:#a9b315; stroke:none;" d="M14.3333 5.66667L14.6667 6.33333L14.3333 5.66667z"/>
<path style="fill:#199739; stroke:none;" d="M15.3333 5.66667L15.6667 6.33333L15.3333 5.66667z"/>
<path style="fill:#ab832f; stroke:none;" d="M5 6L6 7L5 6z"/>
<path style="fill:#35237b; stroke:none;" d="M6 6L7 7L6 6z"/>
<path style="fill:#311f77; stroke:none;" d="M7 6L8 7L7 6z"/>
<path style="fill:#37257f; stroke:none;" d="M8 6L9 7L8 6z"/>
<path style="fill:#29176f; stroke:none;" d="M9 6L10 7L9 6z"/>
<path style="fill:#5f5793; stroke:none;" d="M10 6L11 7L10 6z"/>
<path style="fill:#b5974b; stroke:none;" d="M11 6L12 7L11 6z"/>
<path style="fill:#51a32b; stroke:none;" d="M3 7L4 8L3 7z"/>
<path style="fill:#e1bf07; stroke:none;" d="M4 7L5 8L4 7z"/>
<path style="fill:#e7b50b; stroke:none;" d="M5 7L6 8L5 7z"/>
<path style="fill:#432f73; stroke:none;" d="M6 7L7 8L6 7z"/>
<path style="fill:#332179; stroke:none;" d="M7 7L8 8L7 7z"/>
<path style="fill:#372577; stroke:none;" d="M8 7L9 8L8 7z"/>
<path style="fill:#3b2981; stroke:none;" d="M9 7L10 8L9 7z"/>
<path style="fill:#5b4781; stroke:none;" d="M10 7L11 8L10 7z"/>
<path style="fill:#e7b50f; stroke:none;" d="M11 7L12 8L11 7z"/>
<path style="fill:#e1bf07; stroke:none;" d="M12 7L13 8L12 7z"/>
<path style="fill:#51a32b; stroke:none;" d="M13 7L14 8L13 7z"/>
<path style="fill:#11953b; stroke:none;" d="M4 8L5 9L4 8z"/>
<path style="fill:#99b119; stroke:none;" d="M5 8L6 9L5 8z"/>
<path style="fill:#cfa117; stroke:none;" d="M6 8L7 9L6 8z"/>
<path style="fill:#593f55; stroke:none;" d="M7 8L8 9L7 8z"/>
<path style="fill:#331f6b; stroke:none;" d="M8 8L9 9L8 8z"/>
<path style="fill:#61475d; stroke:none;" d="M9 8L10 9L9 8z"/>
<path style="fill:#cfa119; stroke:none;" d="M10 8L11 9L10 8z"/>
<path style="fill:#99b119; stroke:none;" d="M11 8L12 9L11 8z"/>
<path style="fill:#11953b; stroke:none;" d="M12 8L13 9L12 8z"/>
<path style="fill:#419f2f; stroke:none;" d="M6 9L7 10L6 9z"/>
<path style="fill:#d7bd09; stroke:none;" d="M7 9L8 10L7 9z"/>
<path style="fill:#f9c301; stroke:none;" d="M8 9L9 10L8 9z"/>
<path style="fill:#d7bd09; stroke:none;" d="M9 9L10 10L9 9z"/>
<path style="fill:#419f2f; stroke:none;" d="M10 9L11 10L10 9z"/>
<path style="fill:#09953d; stroke:none;" d="M7 10L8 11L7 10z"/>
<path style="fill:#5fa527; stroke:none;" d="M8 10L9 11L8 10z"/>
<path style="fill:#09953d; stroke:none;" d="M9 10L10 11L9 10z"/>
</svg>
