<?xml version="1.0" standalone="yes"?>
<svg width="18" height="12">
<path style="fill:#016333; stroke:none;" d="M0 0L0 12L7 12L7 0L0 0z"/>
<path style="fill:#af3123; stroke:none;" d="M7 0L7 3L8 3L7 0z"/>
<path style="fill:#dd251f; stroke:none;" d="M8 0L8 12L18 12L18 0L8 0z"/>
<path style="fill:#558d2b; stroke:none;" d="M5 3L6 4L5 3z"/>
<path style="fill:#63932f; stroke:none;" d="M6 3L7 4L6 3z"/>
<path style="fill:#d7a31f; stroke:none;" d="M7 3L8 4L7 3z"/>
<path style="fill:#e17523; stroke:none;" d="M8 3L9 4L8 3z"/>
<path style="fill:#dd331d; stroke:none;" d="M9 3L10 4L9 3z"/>
<path style="fill:#a3ab0d; stroke:none;" d="M4 4L5 5L4 4z"/>
<path style="fill:#c77f3d; stroke:none;" d="M5 4L6 5L5 4z"/>
<path style="fill:#cb5947; stroke:none;" d="M6 4L7 5L6 4z"/>
<path style="fill:#c96f39; stroke:none;" d="M7 4L8 5L7 4z"/>
<path style="fill:#c3632b; stroke:none;" d="M8 4L9 5L8 4z"/>
<path style="fill:#d5990b; stroke:none;" d="M9 4L10 5L9 4z"/>
<path style="fill:#879f15; stroke:none;" d="M4 5L5 6L4 5z"/>
<path style="fill:#d58943; stroke:none;" d="M5 5L6 6L5 5z"/>
<path style="fill:#d7c1c3; stroke:none;" d="M6 5L7 6L6 5z"/>
<path style="fill:#a5b5d1; stroke:none;" d="M7 5L8 6L7 5z"/>
<path style="fill:#c77747; stroke:none;" d="M8 5L9 6L8 5z"/>
<path style="fill:#d97d0f; stroke:none;" d="M9 5L10 6L9 5z"/>
<path style="fill:#d93f1b; stroke:none;" d="M10 5L11 6L10 5z"/>
<path style="fill:#7d9b17; stroke:none;" d="M4 6L5 7L4 6z"/>
<path style="fill:#c37b5b; stroke:none;" d="M5 6L6 7L5 6z"/>
<path style="fill:#d5b5b9; stroke:none;" d="M6 6L7 7L6 6z"/>
<path style="fill:#a5b5d3; stroke:none;" d="M7 6L8 7L7 6z"/>
<path style="fill:#db6755; stroke:none;" d="M8 6L9 7L8 6z"/>
<path style="fill:#d98f0d; stroke:none;" d="M9 6L10 7L9 6z"/>
<path style="fill:#d53f1b; stroke:none;" d="M10 6L11 7L10 6z"/>
<path style="fill:#71931b; stroke:none;" d="M4 7L5 8L4 7z"/>
<path style="fill:#a5a131; stroke:none;" d="M5 7L6 8L5 7z"/>
<path style="fill:#cb6d3d; stroke:none;" d="M6 7L7 8L6 7z"/>
<path style="fill:#dd635d; stroke:none;" d="M7 7L8 8L7 7z"/>
<path style="fill:#cf8f3d; stroke:none;" d="M8 7L9 8L8 7z"/>
<path style="fill:#dbb307; stroke:none;" d="M9 7L10 8L9 7z"/>
<path style="fill:#4d8521; stroke:none;" d="M5 8L6 9L5 8z"/>
<path style="fill:#618b21; stroke:none;" d="M6 8L7 9L6 8z"/>
<path style="fill:#d3a317; stroke:none;" d="M7 8L8 9L7 8z"/>
<path style="fill:#db6913; stroke:none;" d="M8 8L9 9L8 8z"/>
<path style="fill:#dd311d; stroke:none;" d="M9 8L10 9L9 8z"/>
<path style="fill:#af3123; stroke:none;" d="M7 9L7 12L8 12L7 9z"/>
</svg>
