<?xml version="1.0" standalone="yes"?>
<svg width="20" height="12">
<path style="fill:#ffffff; stroke:none;" d="M0 0L0 1L8 5L8 7L0 11L0 12C9.26623 9.06876 10.7338 9.06876 20 12L20 11L12 7L12 5L20 1L20 0C10.7338 2.93124 9.26623 2.93124 0 0z"/>
<path style="fill:#ddedf7; stroke:none;" d="M2 0L3 1L2 0z"/>
<path style="fill:#4d9dd7; stroke:none;" d="M3 0L4 1L3 0z"/>
<path style="fill:#0173c7; stroke:none;" d="M4 0L4 1C8.82433 3.08522 11.1757 3.08522 16 1L4 0z"/>
<path style="fill:#4d9dd7; stroke:none;" d="M16 0L17 1L16 0z"/>
<path style="fill:#ddedf7; stroke:none;" d="M17 0L18 1L17 0z"/>
<path style="fill:#b3d5ef; stroke:none;" d="M0 1L1 2L0 1M4 1L5 2L4 1z"/>
<path style="fill:#2385cf; stroke:none;" d="M5 1L6 2L5 1M14 1L15 2L14 1z"/>
<path style="fill:#b3d5ef; stroke:none;" d="M15 1L16 2L15 1M19 1L20 2L19 1z"/>
<path style="fill:#0173c7; stroke:none;" d="M0 2L0 10L6 7L6 5L0 2z"/>
<path style="fill:#4d9dd7; stroke:none;" d="M1 2L2 3L1 2z"/>
<path style="fill:#ddedf7; stroke:none;" d="M2 2L3 3L2 2z"/>
<path style="fill:#f7fbfd; stroke:none;" d="M5 2L6 3L5 2z"/>
<path style="fill:#7fb9e3; stroke:none;" d="M6 2L7 3L6 2z"/>
<path style="fill:#0977c9; stroke:none;" d="M7 2L8 3L7 2M12 2L13 3L12 2z"/>
<path style="fill:#7fb9e3; stroke:none;" d="M13 2L14 3L13 2z"/>
<path style="fill:#f7fbfd; stroke:none;" d="M14 2L15 3L14 2z"/>
<path style="fill:#ddedf7; stroke:none;" d="M17 2L18 3L17 2z"/>
<path style="fill:#4d9dd7; stroke:none;" d="M18 2L19 3L18 2z"/>
<path style="fill:#0173c7; stroke:none;" d="M19 2L14 5L14 7L20 10L19 2z"/>
<path style="fill:#0977c9; stroke:none;" d="M2 3L3 4L2 3z"/>
<path style="fill:#7fb9e3; stroke:none;" d="M3 3L4 4L3 3z"/>
<path style="fill:#f7fbfd; stroke:none;" d="M4 3L5 4L4 3z"/>
<path style="fill:#ddedf7; stroke:none;" d="M7 3L8 4L7 3z"/>
<path style="fill:#4d9dd7; stroke:none;" d="M8 3L9 4L8 3M11 3L12 4L11 3z"/>
<path style="fill:#ddedf7; stroke:none;" d="M12 3L13 4L12 3z"/>
<path style="fill:#f7fbfd; stroke:none;" d="M15 3L16 4L15 3z"/>
<path style="fill:#7fb9e3; stroke:none;" d="M16 3L17 4L16 3z"/>
<path style="fill:#0977c9; stroke:none;" d="M17 3L18 4L17 3z"/>
<path style="fill:#2385cf; stroke:none;" d="M4 4L5 5L4 4z"/>
<path style="fill:#b3d5ef; stroke:none;" d="M5 4L6 5L5 4z"/>
<path style="fill:#d5e7f5; stroke:none;" d="M9.66667 4.33333L10.3333 4.66667L9.66667 4.33333z"/>
<path style="fill:#b3d5ef; stroke:none;" d="M14 4L15 5L14 4z"/>
<path style="fill:#2385cf; stroke:none;" d="M15 4L16 5L15 4z"/>
<path style="fill:#4d9dd7; stroke:none;" d="M6.33333 5.66667L6.66667 6.33333L6.33333 5.66667z"/>
<path style="fill:#e5f1f9; stroke:none;" d="M7.33333 5.66667L7.66667 6.33333L7.33333 5.66667M12.3333 5.66667L12.6667 6.33333L12.3333 5.66667z"/>
<path style="fill:#4d9dd7; stroke:none;" d="M13.3333 5.66667L13.6667 6.33333L13.3333 5.66667z"/>
<path style="fill:#2385cf; stroke:none;" d="M4 7L5 8L4 7z"/>
<path style="fill:#b3d5ef; stroke:none;" d="M5 7L6 8L5 7z"/>
<path style="fill:#d5e7f5; stroke:none;" d="M9.66667 7.33333L10.3333 7.66667L9.66667 7.33333z"/>
<path style="fill:#b3d5ef; stroke:none;" d="M14 7L15 8L14 7z"/>
<path style="fill:#2385cf; stroke:none;" d="M15 7L16 8L15 7z"/>
<path style="fill:#0977c9; stroke:none;" d="M2 8L3 9L2 8z"/>
<path style="fill:#7fb9e3; stroke:none;" d="M3 8L4 9L3 8z"/>
<path style="fill:#f7fbfd; stroke:none;" d="M4 8L5 9L4 8z"/>
<path style="fill:#ddedf7; stroke:none;" d="M7 8L8 9L7 8z"/>
<path style="fill:#4d9dd7; stroke:none;" d="M8 8L9 9L8 8z"/>
<path style="fill:#0173c7; stroke:none;" d="M4 11L4 12L16 12C11.7722 8.40087 8.86892 8.89551 4 11z"/>
<path style="fill:#4d9dd7; stroke:none;" d="M11 8L12 9L11 8z"/>
<path style="fill:#ddedf7; stroke:none;" d="M12 8L13 9L12 8z"/>
<path style="fill:#f7fbfd; stroke:none;" d="M15 8L16 9L15 8z"/>
<path style="fill:#7fb9e3; stroke:none;" d="M16 8L17 9L16 8z"/>
<path style="fill:#0977c9; stroke:none;" d="M17 8L18 9L17 8z"/>
<path style="fill:#4d9dd7; stroke:none;" d="M1 9L2 10L1 9z"/>
<path style="fill:#ddedf7; stroke:none;" d="M2 9L3 10L2 9z"/>
<path style="fill:#f7fbfd; stroke:none;" d="M5 9L6 10L5 9z"/>
<path style="fill:#7fb9e3; stroke:none;" d="M6 9L7 10L6 9z"/>
<path style="fill:#0977c9; stroke:none;" d="M7 9L8 10L7 9M12 9L13 10L12 9z"/>
<path style="fill:#7fb9e3; stroke:none;" d="M13 9L14 10L13 9z"/>
<path style="fill:#f7fbfd; stroke:none;" d="M14 9L15 10L14 9z"/>
<path style="fill:#ddedf7; stroke:none;" d="M17 9L18 10L17 9z"/>
<path style="fill:#4d9dd7; stroke:none;" d="M18 9L19 10L18 9z"/>
<path style="fill:#b3d5ef; stroke:none;" d="M0 10L1 11L0 10M4 10L5 11L4 10z"/>
<path style="fill:#2385cf; stroke:none;" d="M5 10L6 11L5 10M14 10L15 11L14 10z"/>
<path style="fill:#b3d5ef; stroke:none;" d="M15 10L16 11L15 10M19 10L20 11L19 10z"/>
<path style="fill:#ddedf7; stroke:none;" d="M2 11L3 12L2 11z"/>
<path style="fill:#4d9dd7; stroke:none;" d="M3 11L4 12L3 11M16 11L17 12L16 11z"/>
<path style="fill:#ddedf7; stroke:none;" d="M17 11L18 12L17 11z"/>
</svg>
