<?xml version="1.0" standalone="yes"?>
<svg width="16" height="12">
<path style="fill:#d91f05; stroke:none;" d="M0 0L0 12L5 12L5 0L0 0z"/>
<path style="fill:#03793d; stroke:none;" d="M5.33333 0.666667L5.66667 1.33333L5.33333 0.666667z"/>
<path style="fill:#ebcd19; stroke:none;" d="M6.33333 0.666667L6.66667 1.33333L6.33333 0.666667z"/>
<path style="fill:#295191; stroke:none;" d="M7.33333 0.666667L7.66667 1.33333L7.33333 0.666667z"/>
<path style="fill:#0139a9; stroke:none;" d="M8 0L8 12L16 12L16 0L8 0z"/>
<path style="fill:#932739; stroke:none;" d="M4 2L5 3L4 2z"/>
<path style="fill:#014f85; stroke:none;" d="M5 2L6 3L5 2z"/>
<path style="fill:#cd651b; stroke:none;" d="M6 2L7 3L6 2z"/>
<path style="fill:#91333f; stroke:none;" d="M7 2L8 3L7 2z"/>
<path style="fill:#0d379f; stroke:none;" d="M8 2L9 3L8 2z"/>
<path style="fill:#77294f; stroke:none;" d="M3 3L4 4L3 3z"/>
<path style="fill:#93273b; stroke:none;" d="M4 3L5 4L4 3z"/>
<path style="fill:#03793d; stroke:none;" d="M5 3L5 8L6 8L5 3z"/>
<path style="fill:#ebcd19; stroke:none;" d="M6 3L6 9L7 9L6 3z"/>
<path style="fill:#41497f; stroke:none;" d="M7 3L8 4L7 3z"/>
<path style="fill:#832947; stroke:none;" d="M8 3L9 4L8 3z"/>
<path style="fill:#11379b; stroke:none;" d="M9 3L10 4L9 3z"/>
<path style="fill:#ad2327; stroke:none;" d="M2 4L3 5L2 4z"/>
<path style="fill:#7d294b; stroke:none;" d="M3 4L4 5L3 4z"/>
<path style="fill:#d91f05; stroke:none;" d="M4 4L4 8L5 8L4 4z"/>
<path style="fill:#295191; stroke:none;" d="M7 4L7 8L8 8L7 4z"/>
<path style="fill:#0f379d; stroke:none;" d="M8 4L9 5L8 4z"/>
<path style="fill:#7b294d; stroke:none;" d="M9 4L10 5L9 4z"/>
<path style="fill:#6f2b55; stroke:none;" d="M2.33333 5.66667L2.66667 6.33333L2.33333 5.66667z"/>
<path style="fill:#b9231d; stroke:none;" d="M3.33333 5.66667L3.66667 6.33333L3.33333 5.66667z"/>
<path style="fill:#0139a9; stroke:none;" d="M8.33333 5.66667L8.66667 6.33333L8.33333 5.66667z"/>
<path style="fill:#892741; stroke:none;" d="M9.33333 5.66667L9.66667 6.33333L9.33333 5.66667z"/>
<path style="fill:#ad2327; stroke:none;" d="M2 7L3 8L2 7z"/>
<path style="fill:#7d294b; stroke:none;" d="M3 7L4 8L3 7z"/>
<path style="fill:#0f379d; stroke:none;" d="M8 7L9 8L8 7z"/>
<path style="fill:#7b294d; stroke:none;" d="M9 7L10 8L9 7z"/>
<path style="fill:#77294f; stroke:none;" d="M3 8L4 9L3 8z"/>
<path style="fill:#93273b; stroke:none;" d="M4 8L5 9L4 8z"/>
<path style="fill:#03773d; stroke:none;" d="M5 8L6 9L5 8z"/>
<path style="fill:#41497f; stroke:none;" d="M7 8L8 9L7 8z"/>
<path style="fill:#832947; stroke:none;" d="M8 8L9 9L8 8z"/>
<path style="fill:#11379b; stroke:none;" d="M9 8L10 9L9 8z"/>
<path style="fill:#932739; stroke:none;" d="M4 9L5 10L4 9z"/>
<path style="fill:#014f85; stroke:none;" d="M5 9L6 10L5 9z"/>
<path style="fill:#cd651b; stroke:none;" d="M6 9L7 10L6 9z"/>
<path style="fill:#91333f; stroke:none;" d="M7 9L8 10L7 9z"/>
<path style="fill:#0d379f; stroke:none;" d="M8 9L9 10L8 9z"/>
<path style="fill:#03793d; stroke:none;" d="M5.33333 10.6667L5.66667 11.3333L5.33333 10.6667z"/>
<path style="fill:#ebcd19; stroke:none;" d="M6.33333 10.6667L6.66667 11.3333L6.33333 10.6667z"/>
<path style="fill:#295191; stroke:none;" d="M7.33333 10.6667L7.66667 11.3333L7.33333 10.6667z"/>
</svg>
