<?xml version="1.0" standalone="yes"?>
<svg width="18" height="12">
<path style="fill:#ffffff; stroke:none;" d="M0 0L0 4L18 4L18 0L0 0z"/>
<path style="fill:#d32539; stroke:none;" d="M3 3L4 4L3 3z"/>
<path style="fill:#cf1127; stroke:none;" d="M4 3L5 4L4 3z"/>
<path style="fill:#e78b95; stroke:none;" d="M5 3L4 5L5 3z"/>
<path style="fill:#cf1127; stroke:none;" d="M6 3L7 4L6 3z"/>
<path style="fill:#dd5363; stroke:none;" d="M7 3L8 4L7 3z"/>
<path style="fill:#0139a9; stroke:none;" d="M0 4L3 8L0 4z"/>
<path style="fill:#2757b5; stroke:none;" d="M2 4L3 5L2 4z"/>
<path style="fill:#cf172b; stroke:none;" d="M3 4L4 5L3 4z"/>
<path style="fill:#f5cbcf; stroke:none;" d="M5.33333 4.66667L5.66667 5.33333L5.33333 4.66667z"/>
<path style="fill:#e16b79; stroke:none;" d="M6 4L7 5L6 4z"/>
<path style="fill:#d74757; stroke:none;" d="M7 4L8 5L7 4z"/>
<path style="fill:#0139a9; stroke:none;" d="M8 4L8 8L18 8L18 4L8 4z"/>
<path style="fill:#1f4fb3; stroke:none;" d="M2 5L3 6L2 5z"/>
<path style="fill:#d32d3f; stroke:none;" d="M3 5L4 6L3 5z"/>
<path style="fill:#eb9fa7; stroke:none;" d="M4 5L5 6L4 5z"/>
<path style="fill:#e78b95; stroke:none;" d="M6 5L7 6L6 5z"/>
<path style="fill:#d54b5f; stroke:none;" d="M7 5L8 6L7 5z"/>
<path style="fill:#033ba9; stroke:none;" d="M2 6L3 7L2 6z"/>
<path style="fill:#d73f51; stroke:none;" d="M3 6L4 7L3 6z"/>
<path style="fill:#c3132d; stroke:none;" d="M4 6L5 7L4 6z"/>
<path style="fill:#9d739f; stroke:none;" d="M5 6L6 7L5 6z"/>
<path style="fill:#cb1329; stroke:none;" d="M6 6L7 7L6 6z"/>
<path style="fill:#cb5d75; stroke:none;" d="M7 6L8 7L7 6z"/>
<path style="fill:#7d639b; stroke:none;" d="M3 7L4 8L3 7z"/>
<path style="fill:#213395; stroke:none;" d="M4 7L5 8L4 7z"/>
<path style="fill:#093ba7; stroke:none;" d="M5 7L6 8L5 7z"/>
<path style="fill:#11359f; stroke:none;" d="M6 7L7 8L6 7z"/>
<path style="fill:#6765a9; stroke:none;" d="M7 7L8 8L7 7z"/>
<path style="fill:#cf1127; stroke:none;" d="M0 8L0 12L18 12L18 8L0 8z"/>
<path style="fill:#cf172b; stroke:none;" d="M3 8L4 9L3 8z"/>
<path style="fill:#83558b; stroke:none;" d="M4 8L5 9L4 8z"/>
<path style="fill:#213799; stroke:none;" d="M5 8L6 9L5 8z"/>
<path style="fill:#9f5581; stroke:none;" d="M6 8L7 9L6 8z"/>
<path style="fill:#d12135; stroke:none;" d="M5 9L6 10L5 9z"/>
</svg>
