<?xml version="1.0" standalone="yes"?>
<svg width="18" height="12">
<path style="fill:#1397fb; stroke:none;" d="M0 0L0 12L18 12L18 0L0 0z"/>
<path style="fill:#1195fb; stroke:none;" d="M7 3L8 4L7 3z"/>
<path style="fill:#31bdfd; stroke:none;" d="M8.66667 3.33333L9.33333 3.66667L8.66667 3.33333z"/>
<path style="fill:#1195fb; stroke:none;" d="M10 3L11 4L10 3z"/>
<path style="fill:#1ba5fb; stroke:none;" d="M6 4L7 5L6 4z"/>
<path style="fill:#1fabfb; stroke:none;" d="M7 4L8 5L7 4z"/>
<path style="fill:#c5f1ff; stroke:none;" d="M8.66667 4.33333L9.33333 4.66667L8.66667 4.33333z"/>
<path style="fill:#1fabfb; stroke:none;" d="M10 4L11 5L10 4z"/>
<path style="fill:#1ba5fb; stroke:none;" d="M11 4L12 5L11 4z"/>
<path style="fill:#3fc5fd; stroke:none;" d="M6 5L7 6L6 5z"/>
<path style="fill:#edf9ff; stroke:none;" d="M7 5L8 6L7 5z"/>
<path style="fill:#ffffff; stroke:none;" d="M8 5L8 7L10 7L10 5L8 5z"/>
<path style="fill:#edf9ff; stroke:none;" d="M10 5L11 6L10 5z"/>
<path style="fill:#3fc5fd; stroke:none;" d="M11 5L12 6L11 5z"/>
<path style="fill:#1195fb; stroke:none;" d="M6.33333 6.66667L6.66667 7.33333L6.33333 6.66667z"/>
<path style="fill:#7ddffd; stroke:none;" d="M7 6L8 7L7 6M10 6L11 7L10 6z"/>
<path style="fill:#1195fb; stroke:none;" d="M11.3333 6.66667L11.6667 7.33333L11.3333 6.66667z"/>
<path style="fill:#8be3fd; stroke:none;" d="M7 7L8 8L7 7z"/>
<path style="fill:#c5f1ff; stroke:none;" d="M8.66667 7.33333L9.33333 7.66667L8.66667 7.33333z"/>
<path style="fill:#8be3fd; stroke:none;" d="M10 7L11 8L10 7z"/>
<path style="fill:#1399fb; stroke:none;" d="M6 8L7 9L6 8z"/>
<path style="fill:#23affb; stroke:none;" d="M7 8L8 9L7 8z"/>
<path style="fill:#139bfb; stroke:none;" d="M8.66667 8.33333L9.33333 8.66667L8.66667 8.33333z"/>
<path style="fill:#23affb; stroke:none;" d="M10 8L11 9L10 8z"/>
<path style="fill:#1399fb; stroke:none;" d="M11 8L12 9L11 8z"/>
</svg>
