<?xml version="1.0" standalone="yes"?>
<svg width="18" height="12">
<path style="fill:#c7373d; stroke:none;" d="M0 0L0 3L3 3L3 0L0 0z"/>
<path style="fill:#c5373d; stroke:none;" d="M3 0L4 1L3 0z"/>
<path style="fill:#c7353b; stroke:none;" d="M3 2L6 1L3 2z"/>
<path style="fill:#c5373b; stroke:none;" d="M6 0L7 1L6 0z"/>
<path style="fill:#c7353b; stroke:none;" d="M7 0L8 1L7 0z"/>
<path style="fill:#c5353b; stroke:none;" d="M8 0L10 2L8 0z"/>
<path style="fill:#c7373d; stroke:none;" d="M9 0L18 3L18 0L9 0z"/>
<path style="fill:#c5393f; stroke:none;" d="M4 1L5 2L4 1z"/>
<path style="fill:#c34f4d; stroke:none;" d="M5 1L6 2L5 1z"/>
<path style="fill:#b95549; stroke:none;" d="M6 1L7 2L6 1z"/>
<path style="fill:#c54d4d; stroke:none;" d="M7 1L8 2L7 1z"/>
<path style="fill:#c7373d; stroke:none;" d="M8 1L9 2L8 1z"/>
<path style="fill:#c7333b; stroke:none;" d="M3 2L4 3L3 2z"/>
<path style="fill:#c35b4d; stroke:none;" d="M4 2L5 3L4 2z"/>
<path style="fill:#bd714b; stroke:none;" d="M5 2L6 3L5 2z"/>
<path style="fill:#bf5d47; stroke:none;" d="M6 2L7 3L6 2z"/>
<path style="fill:#bd6f4b; stroke:none;" d="M7 2L8 3L7 2z"/>
<path style="fill:#c3594b; stroke:none;" d="M8 2L9 3L8 2z"/>
<path style="fill:#c7353b; stroke:none;" d="M9 2L10 3L9 2z"/>
<path style="fill:#bd373f; stroke:none;" d="M0 3L0 4L4 4L0 3z"/>
<path style="fill:#bd393b; stroke:none;" d="M4 3L5 4L4 3z"/>
<path style="fill:#bd8f39; stroke:none;" d="M5 3L6 4L5 3z"/>
<path style="fill:#c38b35; stroke:none;" d="M6 3L7 4L6 3z"/>
<path style="fill:#b98739; stroke:none;" d="M7 3L8 4L7 3z"/>
<path style="fill:#bf333b; stroke:none;" d="M8 3L9 4L8 3z"/>
<path style="fill:#bd373f; stroke:none;" d="M9 3L9 4L18 4L9 3z"/>
<path style="fill:#393d69; stroke:none;" d="M0 4L0 5L3 5L0 4z"/>
<path style="fill:#3f3d67; stroke:none;" d="M3 4L4 5L3 4z"/>
<path style="fill:#bf7785; stroke:none;" d="M4 4L5 5L4 4z"/>
<path style="fill:#bd6741; stroke:none;" d="M5 4L6 5L5 4z"/>
<path style="fill:#d3a58d; stroke:none;" d="M6 4L7 5L6 4z"/>
<path style="fill:#bf6545; stroke:none;" d="M7 4L8 5L7 4z"/>
<path style="fill:#af6d7f; stroke:none;" d="M8 4L9 5L8 4z"/>
<path style="fill:#373d69; stroke:none;" d="M9 4L10 5L9 4z"/>
<path style="fill:#393d69; stroke:none;" d="M10 4L10 5L18 5L10 4z"/>
<path style="fill:#0b4177; stroke:none;" d="M0 5L0 6L3 6L0 5z"/>
<path style="fill:#113d73; stroke:none;" d="M3 5L4 6L3 5z"/>
<path style="fill:#c5cdd5; stroke:none;" d="M4 5L5 6L4 5z"/>
<path style="fill:#d18987; stroke:none;" d="M5 5L6 6L5 5z"/>
<path style="fill:#d9b9b9; stroke:none;" d="M6 5L7 6L6 5z"/>
<path style="fill:#d99b9b; stroke:none;" d="M7 5L8 6L7 5z"/>
<path style="fill:#adb1bf; stroke:none;" d="M8 5L9 6L8 5z"/>
<path style="fill:#093f75; stroke:none;" d="M9.33333 5.66667L9.66667 6.33333L9.33333 5.66667z"/>
<path style="fill:#0b4177; stroke:none;" d="M10 5L10 6L18 6L10 5z"/>
<path style="fill:#0d4177; stroke:none;" d="M0 6L0 7L3 7L0 6z"/>
<path style="fill:#113d71; stroke:none;" d="M3 6L4 7L3 6z"/>
<path style="fill:#c3c9d1; stroke:none;" d="M4 6L5 7L4 6z"/>
<path style="fill:#d5b1b1; stroke:none;" d="M5 6L6 7L5 6z"/>
<path style="fill:#d3999b; stroke:none;" d="M6 6L7 7L6 6z"/>
<path style="fill:#d5bfc1; stroke:none;" d="M7 6L8 7L7 6z"/>
<path style="fill:#adadbb; stroke:none;" d="M8 6L9 7L8 6z"/>
<path style="fill:#0d4177; stroke:none;" d="M10 6L10 7L18 7L10 6z"/>
<path style="fill:#01356f; stroke:none;" d="M0 7L0 8L3 8L0 7z"/>
<path style="fill:#053169; stroke:none;" d="M3 7L4 8L3 7z"/>
<path style="fill:#c3bfc9; stroke:none;" d="M4 7L5 8L4 7z"/>
<path style="fill:#d7bdbf; stroke:none;" d="M5 7L6 8L5 7z"/>
<path style="fill:#dbabad; stroke:none;" d="M6 7L7 8L6 7z"/>
<path style="fill:#ddcbcd; stroke:none;" d="M7 7L8 8L7 7z"/>
<path style="fill:#a99dad; stroke:none;" d="M8 7L9 8L8 7z"/>
<path style="fill:#01336d; stroke:none;" d="M9 7L10 8L9 7z"/>
<path style="fill:#01356f; stroke:none;" d="M10 7L10 8L18 8L10 7z"/>
<path style="fill:#cfd9e5; stroke:none;" d="M0 8L0 9L3 9L0 8z"/>
<path style="fill:#d1dbe7; stroke:none;" d="M3 8L4 9L3 8z"/>
<path style="fill:#d19d8d; stroke:none;" d="M4 8L5 9L4 8z"/>
<path style="fill:#c77f6d; stroke:none;" d="M5 8L6 9L5 8z"/>
<path style="fill:#cd9fa3; stroke:none;" d="M6 8L7 9L6 8z"/>
<path style="fill:#c78167; stroke:none;" d="M7 8L8 9L7 8z"/>
<path style="fill:#d3a7a1; stroke:none;" d="M8 8L9 9L8 8z"/>
<path style="fill:#cfdde7; stroke:none;" d="M9 8L10 9L9 8z"/>
<path style="fill:#cfd9e5; stroke:none;" d="M10 8L10 9L18 9L10 8z"/>
<path style="fill:#ffffff; stroke:none;" d="M0 9L0 12L18 12L18 9L0 9z"/>
<path style="fill:#ebc5bf; stroke:none;" d="M4 9L5 10L4 9z"/>
<path style="fill:#cb7f4d; stroke:none;" d="M5 9L6 10L5 9z"/>
<path style="fill:#e3dbe1; stroke:none;" d="M6 9L7 10L6 9z"/>
<path style="fill:#cb7943; stroke:none;" d="M7 9L8 10L7 9z"/>
<path style="fill:#f3dddb; stroke:none;" d="M8 9L9 10L8 9z"/>
<path style="fill:#f5e1e5; stroke:none;" d="M5 10L6 11L5 10z"/>
<path style="fill:#f1dddf; stroke:none;" d="M6 10L7 11L6 10z"/>
<path style="fill:#f7e5e9; stroke:none;" d="M7 10L8 11L7 10z"/>
</svg>
