<?xml version="1.0" standalone="yes"?>
<svg width="19" height="12">
<path style="fill:#015b99; stroke:none;" d="M0 0L0 4L5 4L5 0L0 0z"/>
<path style="fill:#0f6391; stroke:none;" d="M5 0L5 4L6 4L5 0z"/>
<path style="fill:#fdd117; stroke:none;" d="M6 0L6 5L0 5L0 7L6 7L6 12L8 12L8 7L19 7L19 5L8 5L8 0L6 0z"/>
<path style="fill:#4b7d73; stroke:none;" d="M8 0L8 4L9 4L8 0z"/>
<path style="fill:#015b99; stroke:none;" d="M9 0L9 4L19 4L19 0L9 0z"/>
<path style="fill:#33737f; stroke:none;" d="M0 4L0 5L5 5L0 4z"/>
<path style="fill:#3f7979; stroke:none;" d="M5 4L6 5L5 4z"/>
<path style="fill:#6d8f5f; stroke:none;" d="M8 4L9 5L8 4z"/>
<path style="fill:#33737f; stroke:none;" d="M9 4L9 5L19 5L9 4M0 7L0 8L5 8L0 7z"/>
<path style="fill:#3f7979; stroke:none;" d="M5 7L6 8L5 7z"/>
<path style="fill:#6d8f5f; stroke:none;" d="M8 7L9 8L8 7z"/>
<path style="fill:#33737f; stroke:none;" d="M9 7L9 8L19 8L9 7z"/>
<path style="fill:#015b99; stroke:none;" d="M0 8L0 12L5 12L5 8L0 8z"/>
<path style="fill:#0f6391; stroke:none;" d="M5 8L5 12L6 12L5 8z"/>
<path style="fill:#4b7d73; stroke:none;" d="M8 8L8 12L9 12L8 8z"/>
<path style="fill:#015b99; stroke:none;" d="M9 8L9 12L19 12L19 8L9 8z"/>
</svg>
