<?xml version="1.0" standalone="yes"?>
<svg width="18" height="12">
<path style="fill:#e30b17; stroke:none;" d="M0 0L0 12L18 12L18 0L0 0z"/>
<path style="fill:#e5111d; stroke:none;" d="M3 3L4 4L3 3z"/>
<path style="fill:#f38f95; stroke:none;" d="M4 3L5 4L4 3z"/>
<path style="fill:#fbd7d9; stroke:none;" d="M5 3L6 4L5 3z"/>
<path style="fill:#f39ba1; stroke:none;" d="M6 3L7 4L6 3z"/>
<path style="fill:#ef7179; stroke:none;" d="M7 3L8 4L7 3z"/>
<path style="fill:#e5111d; stroke:none;" d="M8 3L9 4L8 3z"/>
<path style="fill:#f38d93; stroke:none;" d="M3 4L4 5L3 4z"/>
<path style="fill:#fbdfe1; stroke:none;" d="M4 4L5 5L4 4z"/>
<path style="fill:#e51f2b; stroke:none;" d="M5 4L6 5L5 4z"/>
<path style="fill:#e30b17; stroke:none;" d="M6 4L8 8L8 4L6 4z"/>
<path style="fill:#eb454f; stroke:none;" d="M8 4L9 5L8 4z"/>
<path style="fill:#e51f2b; stroke:none;" d="M9 4L10 5L9 4z"/>
<path style="fill:#fde7e9; stroke:none;" d="M3.33333 5.66667L3.66667 6.33333L3.33333 5.66667z"/>
<path style="fill:#f17981; stroke:none;" d="M4.33333 5.66667L4.66667 6.33333L4.33333 5.66667z"/>
<path style="fill:#e51925; stroke:none;" d="M8.33333 5.66667L8.66667 6.33333L8.33333 5.66667z"/>
<path style="fill:#f9c5c9; stroke:none;" d="M9.33333 5.66667L9.66667 6.33333L9.33333 5.66667z"/>
<path style="fill:#f9cfd3; stroke:none;" d="M10 5L11 6L10 5z"/>
<path style="fill:#e51521; stroke:none;" d="M11.3333 5.66667L11.6667 6.33333L11.3333 5.66667z"/>
<path style="fill:#fbd1d3; stroke:none;" d="M10 6L11 7L10 6z"/>
<path style="fill:#f38d93; stroke:none;" d="M3 7L4 8L3 7z"/>
<path style="fill:#fbdfe1; stroke:none;" d="M4 7L5 8L4 7z"/>
<path style="fill:#e51f2b; stroke:none;" d="M5 7L6 8L5 7z"/>
<path style="fill:#eb454f; stroke:none;" d="M8 7L9 8L8 7z"/>
<path style="fill:#e51f2b; stroke:none;" d="M9 7L10 8L9 7z"/>
<path style="fill:#e5111d; stroke:none;" d="M3 8L4 9L3 8z"/>
<path style="fill:#f38f95; stroke:none;" d="M4 8L5 9L4 8z"/>
<path style="fill:#fbd7d9; stroke:none;" d="M5 8L6 9L5 8z"/>
<path style="fill:#f39ba1; stroke:none;" d="M6 8L7 9L6 8z"/>
<path style="fill:#ef7179; stroke:none;" d="M7 8L8 9L7 8z"/>
<path style="fill:#e5111d; stroke:none;" d="M8 8L9 9L8 8z"/>
</svg>
