<?xml version="1.0" standalone="yes"?>
<svg width="18" height="12">
<path style="fill:#cf1127; stroke:none;" d="M0 0L0 12L18 12L18 0L0 0z"/>
<path style="fill:#d93d23; stroke:none;" d="M8.66667 2.33333L9.33333 2.66667L8.66667 2.33333z"/>
<path style="fill:#eb871d; stroke:none;" d="M8 3L9 4L8 3z"/>
<path style="fill:#eb851d; stroke:none;" d="M9 3L10 4L9 3z"/>
<path style="fill:#db3f23; stroke:none;" d="M5 4L6 5L5 4z"/>
<path style="fill:#db4923; stroke:none;" d="M6 4L7 5L6 4z"/>
<path style="fill:#db4523; stroke:none;" d="M7 4L8 5L7 4z"/>
<path style="fill:#f9c319; stroke:none;" d="M8.66667 4.33333L9.33333 4.66667L8.66667 4.33333z"/>
<path style="fill:#db4523; stroke:none;" d="M10 4L11 5L10 4z"/>
<path style="fill:#db4923; stroke:none;" d="M11 4L12 5L11 4z"/>
<path style="fill:#db3f23; stroke:none;" d="M12 4L13 5L12 4z"/>
<path style="fill:#d32725; stroke:none;" d="M5 5L6 6L5 5z"/>
<path style="fill:#f5af19; stroke:none;" d="M6 5L7 6L6 5z"/>
<path style="fill:#fbcf17; stroke:none;" d="M7 5L8 6L7 5z"/>
<path style="fill:#fdd117; stroke:none;" d="M8 5L8 7L10 7L10 5L8 5z"/>
<path style="fill:#fbcf17; stroke:none;" d="M10 5L11 6L10 5z"/>
<path style="fill:#f5af19; stroke:none;" d="M11 5L12 6L11 5z"/>
<path style="fill:#d32725; stroke:none;" d="M12 5L13 6L12 5z"/>
<path style="fill:#cf1327; stroke:none;" d="M6 6L7 7L6 6z"/>
<path style="fill:#ef9b1b; stroke:none;" d="M7 6L8 7L7 6z"/>
<path style="fill:#f19b1b; stroke:none;" d="M10 6L11 7L10 6z"/>
<path style="fill:#cf1327; stroke:none;" d="M11 6L12 7L11 6z"/>
<path style="fill:#f7b919; stroke:none;" d="M7 7L8 8L7 7z"/>
<path style="fill:#f9c317; stroke:none;" d="M8.66667 7.33333L9.33333 7.66667L8.66667 7.33333z"/>
<path style="fill:#f7b919; stroke:none;" d="M10 7L11 8L10 7z"/>
<path style="fill:#d52f23; stroke:none;" d="M6 8L7 9L6 8z"/>
<path style="fill:#ef991b; stroke:none;" d="M7 8L8 9L7 8z"/>
<path style="fill:#d11925; stroke:none;" d="M8.66667 8.33333L9.33333 8.66667L8.66667 8.33333z"/>
<path style="fill:#ef991b; stroke:none;" d="M10 8L11 9L10 8z"/>
<path style="fill:#d52f23; stroke:none;" d="M11 8L12 9L11 8z"/>
<path style="fill:#d11925; stroke:none;" d="M6 9L7 10L6 9M11 9L12 10L11 9z"/>
</svg>
