<?xml version="1.0" standalone="yes"?>
<svg width="16" height="12">
<path style="fill:#df2911; stroke:none;" d="M0 0L1 1L0 0z"/>
<path style="fill:#dd2911; stroke:none;" d="M1 0L2 1L1 0z"/>
<path style="fill:#dd2511; stroke:none;" d="M2 0L3 1L2 0z"/>
<path style="fill:#df290f; stroke:none;" d="M3 0L4 1L3 0z"/>
<path style="fill:#df2f0f; stroke:none;" d="M4 0L5 1L4 0z"/>
<path style="fill:#e13f0d; stroke:none;" d="M5 0L6 1L5 0z"/>
<path style="fill:#df290f; stroke:none;" d="M6 0L7 1L6 0z"/>
<path style="fill:#df2911; stroke:none;" d="M7 0C7.6086 3.63105 7.14956 5.05197 4 7L2 6L1 3L0 3L0 12L16 12L16 0L7 0z"/>
<path style="fill:#df290f; stroke:none;" d="M0 1L1 2L0 1z"/>
<path style="fill:#dd2111; stroke:none;" d="M1 1L2 2L1 1z"/>
<path style="fill:#eb7509; stroke:none;" d="M2 1L3 2L2 1z"/>
<path style="fill:#db1911; stroke:none;" d="M3 1L4 2L3 1z"/>
<path style="fill:#dd2511; stroke:none;" d="M4 1L5 2L4 1z"/>
<path style="fill:#f3a705; stroke:none;" d="M5 1L6 2L5 1z"/>
<path style="fill:#dd290f; stroke:none;" d="M6 1L7 2L6 1z"/>
<path style="fill:#dd2911; stroke:none;" d="M7 1L8 2L7 1z"/>
<path style="fill:#db1911; stroke:none;" d="M0 2L1 3L0 2z"/>
<path style="fill:#fff301; stroke:none;" d="M1 2L2 3L1 2z"/>
<path style="fill:#ffdf01; stroke:none;" d="M2 2L3 3L2 2z"/>
<path style="fill:#fffb01; stroke:none;" d="M3 2L4 3L3 2z"/>
<path style="fill:#e3450d; stroke:none;" d="M4 2L5 3L4 2z"/>
<path style="fill:#dd250f; stroke:none;" d="M5 2L6 3L5 2z"/>
<path style="fill:#fdd901; stroke:none;" d="M6 2L7 3L6 2z"/>
<path style="fill:#dd1f11; stroke:none;" d="M7 2L8 3L7 2z"/>
<path style="fill:#e54d0d; stroke:none;" d="M1 3L2 4L1 3z"/>
<path style="fill:#ffe301; stroke:none;" d="M2 3L3 4L2 3z"/>
<path style="fill:#ed7f09; stroke:none;" d="M3 3L4 4L3 3z"/>
<path style="fill:#df2b0f; stroke:none;" d="M4 3L5 4L4 3z"/>
<path style="fill:#dd2511; stroke:none;" d="M5 3L4 5L5 3z"/>
<path style="fill:#dd270f; stroke:none;" d="M6 3L7 4L6 3z"/>
<path style="fill:#df2b0f; stroke:none;" d="M7 3L8 4L7 3z"/>
<path style="fill:#e13b0d; stroke:none;" d="M1 4L2 5L1 4z"/>
<path style="fill:#dd2711; stroke:none;" d="M2 4L3 5L2 4z"/>
<path style="fill:#e3470d; stroke:none;" d="M3 4L4 5L3 4z"/>
<path style="fill:#dd2311; stroke:none;" d="M5 4L6 5L5 4z"/>
<path style="fill:#f5ad03; stroke:none;" d="M6 4L7 5L6 4z"/>
<path style="fill:#dd1f11; stroke:none;" d="M7 4L8 5L7 4z"/>
<path style="fill:#df290f; stroke:none;" d="M0 5L1 6L0 5z"/>
<path style="fill:#dd290f; stroke:none;" d="M2 5L3 6L2 5z"/>
<path style="fill:#e5530b; stroke:none;" d="M4 5L5 6L4 5z"/>
<path style="fill:#f19507; stroke:none;" d="M5 5L6 6L5 5z"/>
<path style="fill:#dd2511; stroke:none;" d="M6 5L7 6L6 5z"/>
<path style="fill:#df290f; stroke:none;" d="M7 5L8 6L7 5z"/>
<path style="fill:#dd2511; stroke:none;" d="M4 6L5 7L4 6z"/>
<path style="fill:#dd2311; stroke:none;" d="M5 6L6 7L5 6z"/>
</svg>
